<?xml version="1.0" encoding="utf-8"?>
<svg version="1.1" xmlns:xlink="http://www.w3.org/1999/xlink" width="18px" height="18px" xmlns="http://www.w3.org/2000/svg">
  <g transform="matrix(1 0 0 1 -407 -143 )">
    <path d="M 16.6259861517857 8.92445122767857  C 16.8742384151786 8.92445122767857  17.0751262098215 9.12556516741072  17.0751262098215 9.37359128571429  L 17.0751262098215 15.4778503058035  C 17.0751262098215 16.7160690803571  16.0676241428571 17.7235711272321  14.8294053683036 17.7235711272321  L 2.25331939285713 17.7235711272321  C 1.01510061830363 17.7235711272321  0.00759857142853499 16.7160690803571  0 15.4778503058035  L 0 2.90176431026786  C 0.00759857142853499 1.66354553571429  1.01510061830363 0.656043488839267  2.25331939285713 0.656043488839267  L 8.3575784129464 0.656043488839267  C 8.60583067633929 0.656043488839267  8.80671847098219 0.857157428571416  8.80671847098219 1.10518354687498  C 8.80671847098219 1.35320966517855  8.60583067633929 1.5543236049107  8.3575784129464 1.5543236049107  L 2.25331939285713 1.5543236049107  C 1.51028945758924 1.5543236049107  0.905878667410678 2.15873439508926  1 2.90176433035716  L 1 15.4778503058035  C 0.905878667410678 16.2208802410714  1.51028945758924 16.82529103125  2.25331939285713 16.7142857142857  L 14.8294053683036 16.7142857142857  C 15.5724147522321 16.82529103125  16.1768460937501 16.2208802410714  16.1768460937501 15.4778503058035  L 16.1768460937501 9.37359128571429  C 16.1768460937501 9.12554459598212  16.3777338883928 8.92445122767857  16.6259861517857 8.92445122767857  Z M 14.2204102834821 1.57570338616068  L 16.5507046272322 3.89732247321427  C 16.5507046272322 3.89732247321427  17.5332704464286 2.90606082589286  17.8355683526786 2.56696503348217  C 18.1378456875 2.22784866964288  17.83554778125 1.57570338616068  17.83554778125 1.57570338616068  C 17.83554778125 1.57570338616068  17.2463084196428 0.923558102678555  16.5680756919643 0.427958136160701  C 15.8898635156251 -0.0676624017857453  15.3681555334822 0.427958136160701  15.3681555334822 0.427958136160701  L 14.2204102834821 1.57570338616068  Z M 9.07994808482137 11.1041825022321  L 6.92344675446431 8.98244391294643  L 5.56691962500005 12.5998221696429  L 9.07994808482137 11.1041825022321  Z M 9.63645991071423 10.79113303125  L 16.0016345959821 4.32162908035717  L 13.7755667410715 2.025974109375  L 7.32343385491078 8.39114879464283  L 9.63645991071423 10.79113303125  Z " fill-rule="nonzero" fill="#000000" stroke="none" transform="matrix(1 0 0 1 407 143 )" />
  </g>
</svg>