<?xml version="1.0" encoding="utf-8"?>
<svg version="1.1" xmlns:xlink="http://www.w3.org/1999/xlink" width="158px" height="25px" viewBox="81 113  158 25" xmlns="http://www.w3.org/2000/svg">
  <path d="M 82 115  A 1 1 0 0 1 83 114 L 237 114  A 1 1 0 0 1 238 115 L 238 136  A 1 1 0 0 1 237 137 L 83 137  A 1 1 0 0 1 82 136 L 82 115  Z " fill-rule="nonzero" fill="#ffffff" stroke="none" />
  <path d="M 81.5 115  A 1.5 1.5 0 0 1 83 113.5 L 237 113.5  A 1.5 1.5 0 0 1 238.5 115 L 238.5 136  A 1.5 1.5 0 0 1 237 137.5 L 83 137.5  A 1.5 1.5 0 0 1 81.5 136 L 81.5 115  Z " stroke-width="1" stroke="#dadce0" fill="none" stroke-opacity="0.996078431372549" />
</svg>