<?xml version="1.0" encoding="utf-8"?>
<svg version="1.1" xmlns:xlink="http://www.w3.org/1999/xlink" width="106px" height="26px" xmlns="http://www.w3.org/2000/svg">
  <g transform="matrix(1 0 0 1 -24 -64 )">
    <path d="M 25 66  A 1 1 0 0 1 26 65 L 128 65  A 1 1 0 0 1 129 66 L 129 88  A 1 1 0 0 1 128 89 L 26 89  A 1 1 0 0 1 25 88 L 25 66  Z " fill-rule="nonzero" fill="#ffffff" stroke="none" />
    <path d="M 24.5 66  A 1.5 1.5 0 0 1 26 64.5 L 128 64.5  A 1.5 1.5 0 0 1 129.5 66 L 129.5 88  A 1.5 1.5 0 0 1 128 89.5 L 26 89.5  A 1.5 1.5 0 0 1 24.5 88 L 24.5 66  Z " stroke-width="1" stroke="#dadce0" fill="none" stroke-opacity="0.996078431372549" />
  </g>
</svg>