<?xml version="1.0" encoding="utf-8"?>
<svg version="1.1" xmlns:xlink="http://www.w3.org/1999/xlink" width="458px" height="64px" viewBox="81 183  458 64" xmlns="http://www.w3.org/2000/svg">
  <path d="M 82 185  A 1 1 0 0 1 83 184 L 537 184  A 1 1 0 0 1 538 185 L 538 245  A 1 1 0 0 1 537 246 L 83 246  A 1 1 0 0 1 82 245 L 82 185  Z " fill-rule="nonzero" fill="#f0f0f0" stroke="none" />
  <path d="M 81.5 185  A 1.5 1.5 0 0 1 83 183.5 L 537 183.5  A 1.5 1.5 0 0 1 538.5 185 L 538.5 245  A 1.5 1.5 0 0 1 537 246.5 L 83 246.5  A 1.5 1.5 0 0 1 81.5 245 L 81.5 185  Z " stroke-width="1" stroke="#dadce0" fill="none" stroke-opacity="0.996078431372549" />
</svg>