<?xml version="1.0" encoding="utf-8"?>
<svg version="1.1" xmlns:xlink="http://www.w3.org/1999/xlink" width="20px" height="16px" xmlns="http://www.w3.org/2000/svg">
  <g transform="matrix(1 0 0 1 -1738 -17 )">
    <path d="M 20 0.380681818181818  L 10 0.380681818181818  L 0 0.380681818181818  L 0 15.6193181818182  L 0.114241071428571 15.6193181818182  L 1.2903125 15.6193181818182  L 10 15.6193181818182  L 18.7096875 15.6193181818182  L 19.8857589285714 15.6193181818182  L 20 15.6193181818182  L 20 0.380681818181818  Z M 1.70995535714286 1  L 18.2900669642857 1  L 10 8.93618181818182  L 1.70995535714286 1  Z M 11.9598214285714 8.92627272727273  L 18.2900669642857 15  L 1.70995535714286 15  L 8.04020089285714 8.92627272727273  L 7.55267857142857 8.46329545454545  L 0.734933035714286 14.9420227272727  L 1 14.9420227272727  L 1 1.05795454545455  L 0.734933035714286 1.05795454545455  L 10 9.86247727272727  L 19.2650892857143 1.05795454545455  L 19 1.05795454545455  L 19 14.9420227272727  L 19.2650892857143 14.9420227272727  L 12.44734375 8.46329545454545  L 11.9598214285714 8.92627272727273  Z " fill-rule="nonzero" fill="#000000" stroke="none" transform="matrix(1 0 0 1 1738 17 )" />
  </g>
</svg>