<?xml version="1.0" encoding="utf-8"?>
<svg version="1.1" xmlns:xlink="http://www.w3.org/1999/xlink" width="16px" height="16px" xmlns="http://www.w3.org/2000/svg">
  <g transform="matrix(1 0 0 1 -28 -253 )">
    <path d="M 7.37656249999998 16  L 16 7.3734375  L 16 0  L 8.62812500000001 0  L 0.00312500000001137 8.625  L 7.37656249999998 16  Z M 0.729687500000011 8.625  L 8.84062499999999 0.5  L 15.5 0.5  L 15.5 7.1625  L 7.37656249999998 15.275  L 0.729687500000011 8.625  Z M 13.8765625 3.2109375  C 13.8765625 2.5046875  13.3015625 1.9296875  12.5953125 1.9296875  C 11.8890625 1.9296875  11.3140625 2.5046875  11.3140625 3.2109375  C 11.3140625 3.9171875  11.8875 4.4921875  12.5953125 4.4921875  C 13.3015625 4.4921875  13.8765625 3.9171875  13.8765625 3.2109375  Z M 7.42500000000001 13.178125  C 7.65468750000002 13.178125  7.84218750000002 12.9921875  7.84218750000002 12.7609375  C 7.84218750000002 12.53125  7.65625 12.34375  7.42500000000001 12.34375  C 7.19375000000002 12.34375  7.0078125 12.5296875  7.0078125 12.7609375  C 7.0078125 12.990625  7.19375000000002 13.178125  7.42500000000001 13.178125  Z M 6.25937499999998 12.296875  L 6.67500000000001 11.9359375  L 4.04062499999998 8.915625  L 3.62656249999998 9.2765625  L 6.25937499999998 12.296875  Z M 13.3640625 3.209375  C 13.3640625 3.6328125  13.01875 3.978125  12.5953125 3.978125  C 12.1703125 3.978125  11.8265625 3.6328125  11.8265625 3.209375  C 11.8265625 2.7859375  12.171875 2.440625  12.5953125 2.440625  C 13.0203125 2.440625  13.3640625 2.7859375  13.3640625 3.209375  Z " fill-rule="nonzero" fill="#0078d7" stroke="none" transform="matrix(1 0 0 1 28 253 )" />
  </g>
</svg>