<?xml version="1.0" encoding="utf-8"?>
<svg version="1.1" xmlns:xlink="http://www.w3.org/1999/xlink" width="48px" height="42px" xmlns="http://www.w3.org/2000/svg">
  <g transform="matrix(1 0 0 1 -24 -64 )">
    <path d="M 24.0554666666667 0.239701747572821  C 25.0290543589744 0.239701747572821  25.9343753846154 0.837846990291269  26.5398482051282 1.88068660194175  L 47.3149702564103 37.6446570873787  C 47.9204430769231 38.6874966990291  47.9881846153846 39.7663502912621  47.5013907692308 40.6045887378641  C 47.0156471794872 41.4417833009709  46.0415343589744 41.9224916504854  44.8300635897436 41  L 3.28086974358974 41  C 2.06939897435898 41.9224916504854  1.09581128205128 41.4417833009709  0.609017435897438 40.6040667961165  C 0.122223589743592 39.7663502912621  0.190490256410257 38.6874966990291  0.795963076923079 37.6446570873787  L 21.57056 1.88068660194175  C 22.1760328205128 0.837846990291269  23.081878974359 0.239701747572821  24.0554666666667 0.239701747572821  Z M 44.8305887179487 39  C 45.3425887179487 39.8347246601942  45.6093538461538 39.6870151456311  45.6833969230769 39.5601833009709  C 45.7569148717949 39.4338733980583  45.7521887179487 39.1290594174757  45.4964512820513 38.6885405825243  L 24.7208041025641 2.9240481553398  C 24.4655917948718 2.48405126213592  24.2030276923077 2.32746873786408  24.0554666666667 2.32746873786408  C 23.9079056410256 2.32746873786408  23.6453415384615 2.48405126213592  23.389078974359 2.92457009708738  L 2.61500717948718 38.6885405825243  C 2.35926974358974 39.1290594174757  2.35454358974359 39.4333514563107  2.42806153846154 39.5601833009709  C 2.50157948717949 39.6870151456311  2.76886974358975 39.8347246601942  3.28086974358974 39  L 44.8305887179487 39  Z M 23 13.5215533980583  C 22.7426461538462 12.8038834951456  23.3334153846154 12.2166990291262  24.0554666666667 12.2166990291262  C 24.7775179487179 12.2166990291262  25.3682871794872 12.8038834951456  25 13.5215533980583  L 25 28.6578640776699  C 25.3682871794872 29.3755339805825  24.7775179487179 29.962718446602  24.0554666666667 29.962718446602  C 23.3312539995645 29.9607113736831  22.7446654799574 29.3776822504329  23 28.6578640776699  L 23 13.5215533980583  Z M 22.7426461538462 32.8333980582524  C 22.7426461538462 32.1127468895412  23.3304159181709 31.5285436893204  24.0554666666667 31.5285436893204  C 24.7805174151625 31.5285436893204  25.3682871794872 32.1127468895412  25.3682871794872 32.8333980582524  C 25.3682871794872 33.5540492269637  24.7805174151625 34.1382524271845  24.0554666666667 34.1382524271845  C 23.3304159181709 34.1382524271845  22.7426461538462 33.5540492269637  22.7426461538462 32.8333980582524  Z " fill-rule="nonzero" fill="#ff9800" stroke="none" transform="matrix(1 0 0 1 24 64 )" />
  </g>
</svg>