<?xml version="1.0" encoding="utf-8"?>
<svg version="1.1" xmlns:xlink="http://www.w3.org/1999/xlink" width="17px" height="16px" xmlns="http://www.w3.org/2000/svg">
  <g transform="matrix(1 0 0 1 -18 -391 )">
    <path d="M 0.406749989182692 4.11821585416667  C 0.406749989182692 6.1771079375  3.88601197836538 7.72946341666667  8.5 7.72946341666667  C 13.1139880216346 7.72946341666667  16.5932500108173 6.17710791666667  16.5932500108173 4.11821583333333  C 16.5932500108173 2.05932375  13.1139880216346 0.506968270833333  8.5 0.506968270833333  C 3.88601197836539 0.506968270833333  0.406749989182692 2.05932377083333  0.406749989182692 4.11821585416667  Z M 8.5 6.58304070833333  C 4.18260472596154 6.58304070833333  1.53112612740385 5.14708627083333  1.53112612740385 4.11821585416667  C 1.53112612740385 3.0893454375  4.18260472596154 1.653391  8.5 1.653391  C 12.8173952740385 1.653391  15.4688738725962 3.08934541666667  15.4688738725962 4.11821585416667  C 15.4688738725962 5.14708629166667  12.8173952740385 6.58304070833333  8.5 6.58304070833333  Z M 15.8572357872596 10.3762449166667  C 15.8543712668269 10.3727059791667  15.8302842283654 10.3475496875  15.8274197079327 10.3440320833333  C 15.8211052295673 10.3387663125  15.8142261959135 10.3340974791667  15.8073471622596 10.3299829375  C 15.7126925721154 10.2510178125  15.5962299855769 10.2077404791667  15.4774883365385 10.2077404791667  C 15.1883600600962 10.2077404791667  14.9531558245192 10.4475565416667  14.9531558245192 10.7423540208333  C 14.9531558245192 10.8821419166667  15.0065153305288 11.01316775  15.1045989963942 11.1143684583333  C 15.1091780444712 11.12080675  15.1137779951923 11.126648125  15.1195070360577 11.1325108333333  C 15.3483967728365 11.3664855416667  15.4906609254808 11.6624342083333  15.4906609254808 11.90401975  C 15.4906609254808 12.9422491666667  12.8311533004808 14.3910801875  8.49997907692307 14.3910801875  C 4.16880485336538 14.3910801875  1.50929722836538 12.9422491666667  1.50929722836538 11.90401975  C 1.50929722836538 11.6425650208333  1.5729648233173 11.4109353958333  1.88446563100961 11.1313596041667  C 1.88618015865384 11.1296114583333  1.90740269711538 11.1091240208333  1.90913812740384 11.107375875  C 1.91716715384615 11.0991894166667  1.9240461670673 11.0898304375  1.92979613100961 11.0798958333333  C 2.00839268870192 10.9828096666667  2.051423203125 10.8640635  2.051423203125 10.7418210416667  C 2.051423203125 10.4470235833333  1.81621898798077 10.2072075  1.52709069110577 10.2072075  C 1.39858458533654 10.2072075  1.27697841586538 10.2540024375  1.18117383293269 10.3399814791667  C 1.17199483413461 10.34524725  1.16338034975961 10.3522611458333  1.15535134375 10.359872  C 0.672899373798074 10.8389072083333  0.428516139423075 11.358320375  0.428516139423075 11.9040410625  C 0.428516139423075 13.9500565208333  3.89862003245192 15.493074375  8.49997907692307 15.493074375  C 13.1013381213942 15.493074375  16.5714420144231 13.9500778541667  16.5714420144231 11.9040410625  C 16.5714420144231 11.3641617708333  16.329358765625 10.8482662083333  15.8572357872596 10.3762449166667  Z M 15.8359714230769 6.42282935416667  C 15.82683425 6.4134276875  15.8170906959135 6.40639245833333  15.8056117115385 6.40055108333333  C 15.71152165625 6.32158595833333  15.5962299855769 6.27888425  15.4774674338942 6.27888425  C 15.1883391574519 6.27888425  14.953134921875 6.5187003125  14.953134921875 6.81349779166667  C 14.953134921875 6.9532856875  15.0064944278846 7.08431152083333  15.10457809375 7.18551222916667  C 15.1091571418269 7.19195052083333  15.1137570925481 7.19779189583333  15.1194861334135 7.20365460416667  C 15.3483758701923 7.4376293125  15.4906400228365 7.73357797916667  15.4906400228365 7.97516352083333  C 15.4906400228365 9.0133929375  12.8311323978365 10.4622026458333  8.49995817427885 10.4622026458333  C 4.16878395072116 10.4622026458333  1.50927632572115 9.013371625  1.50927632572115 7.97516352083333  C 1.50927632572115 7.71370879166667  1.57294392067308 7.48207916666667  1.88444472836539 7.202503375  C 1.88615925600962 7.20015829166666  1.90738179447115 7.17969216666666  1.90911722475962 7.17794402083333  C 1.91658169591346 7.1703331875  1.92287527163462 7.16214672916666  1.92803977764423 7.15278775  C 2.007786328125 7.05570158333333  2.05138137740385 6.935782875  2.05138137740385 6.81236789583333  C 2.05138137740385 6.5175704375  1.81617716225962 6.27835129166667  1.52704886538462 6.27835129166667  C 1.39854275961539 6.27835129166667  1.27693659014423 6.32514622916667  1.18113200721154 6.41112527083333  C 1.17195300841346 6.41639104166666  1.16333852403846 6.4234049375  1.15530951802885 6.43101579166667  C 0.672857548076925 6.910051  0.428474313701925 7.42946416666667  0.428474313701925 7.97518485416667  C 0.428474313701925 10.0212003125  3.89857820673077 11.5642181666667  8.49993725120192 11.5642181666667  C 13.1012962956731 11.5642181666667  16.5714001887019 10.0212216458333  16.5714001887019 7.97518485416667  C 16.5714001887019 7.43590247916667  16.3293169399038 6.91941  15.8359714230769 6.42282935416667  Z " fill-rule="nonzero" fill="#000000" stroke="none" fill-opacity="0.537254901960784" transform="matrix(1 0 0 1 18 391 )" />
  </g>
</svg>