<?xml version="1.0" encoding="utf-8"?>
<svg version="1.1" xmlns:xlink="http://www.w3.org/1999/xlink" width="17px" height="16px" xmlns="http://www.w3.org/2000/svg">
  <g transform="matrix(1 0 0 1 -197 -391 )">
    <path d="M 0.428380681818177 7.98857142857144  C 0.428380681818177 12.2974523809524  3.97102130681818 15.7904761904762  8.34110795454546 15.7904761904762  C 12.7111946022727 15.7904761904762  16.2538352272727 12.2974285714286  16.2538352272727 7.98857142857144  C 16.2538352272727 3.6797142857143  12.7111946022727 0.18666666666667  8.34110795454546 0.18666666666667  C 3.97102130681818 0.18666666666667  0.428380681818177 3.67969047619049  0.428380681818177 7.98857142857144  Z M 1.41747159090909 7.98857142857144  C 1.41747159090909 4.21830952380952  4.51729119318183 1.16190476190474  8.34110795454546 1.16190476190474  C 12.1649247159091 1.16190476190474  15.2647443181818 4.21830952380952  15.2647443181818 7.98857142857144  C 15.2647443181818 11.7588333333333  12.1649247159091 14.8152380952381  8.34110795454546 14.8152380952381  C 4.51729119318183 14.8152380952381  1.41747159090909 11.7588333333333  1.41747159090909 7.98857142857144  Z M 8.8356534090909 8.94859523809525  L 8.8356534090909 7.74478571428569  L 12.0501988636364 7.74478571428569  C 12.3233338068182 7.74478571428569  12.5447443181818 7.5264523809524  12.5447443181818 7.25714285714284  C 12.5447443181818 6.98783333333332  12.3233338068182 6.7695238095238  12.0501988636364 6.7695238095238  L 9.67058522727272 6.7695238095238  L 10.9832798295454 4.91361904761903  C 11.0649232954545 4.82666666666665  11.1152230113636 4.71066666666667  11.1152230113636 4.58283333333332  C 11.1152230113636 4.31354761904762  10.8937883522727 4.09521428571428  10.6206775568182 4.09521428571428  C 10.4320355113636 4.09521428571428  10.2681690340909 4.19940476190476  10.1847869318182 4.35254761904764  L 8.47522443181819 6.7695238095238  L 8.20696732954545 6.7695238095238  L 6.49754971590909 4.35276190476192  C 6.41416761363637 4.19952380952379  6.25025284090909 4.09523809523809  6.06156250000001 4.09523809523809  C 5.78842755681818 4.09523809523809  5.56701704545454 4.31357142857143  5.56701704545454 4.58285714285713  C 5.56701704545454 4.71066666666667  5.61729261363637 4.82661904761907  5.69888778409091 4.91357142857145  L 7.01163068181817 6.76954761904762  L 4.63201704545454 6.76954761904762  C 4.35888210227273 6.76954761904762  4.13747159090909 6.98785714285714  4.13747159090909 7.25716666666665  C 4.13747159090909 7.52647619047617  4.35888210227273 7.74478571428573  4.63201704545454 7.74478571428573  L 7.84656249999999 7.74478571428573  L 7.84656249999999 8.94859523809525  L 4.63201704545454 8.94859523809525  C 4.35888210227273 8.94859523809525  4.13747159090909 9.18214285714285  4.13747159090909 9.45145238095236  C 4.13747159090909 9.72076190476193  4.35888210227273 9.93907142857145  4.63201704545454 9.93907142857145  L 7.84656249999999 9.93907142857145  L 7.84656249999999 12.1333571428572  C 7.84656249999999 12.4026666666667  8.06797301136365 12.6209761904762  8.34110795454546 12.6209761904762  C 8.61424289772727 12.6209761904762  8.8356534090909 12.4026666666667  8.8356534090909 12.1333571428572  L 8.8356534090909 9.93907142857145  L 12.0501988636364 9.93907142857145  C 12.3233338068182 9.93907142857145  12.5447443181818 9.72076190476193  12.5447443181818 9.45145238095236  C 12.5447443181818 9.18214285714285  12.3233338068182 8.96383333333333  12.0501988636364 8.96383333333333  L 8.8356534090909 8.94859523809525  Z " fill-rule="nonzero" fill="#000000" stroke="none" fill-opacity="0.537254901960784" transform="matrix(1 0 0 1 197 391 )" />
  </g>
</svg>