<?xml version="1.0" encoding="utf-8"?>
<svg version="1.1" xmlns:xlink="http://www.w3.org/1999/xlink" width="16px" height="16px" xmlns="http://www.w3.org/2000/svg">
  <g transform="matrix(1 0 0 1 -16 -567 )">
    <path d="M 5.49821348067561 9.1267875451427  L 10.5625103306279 11.6336460982079  C 11.006271323954 10.8103861312283  11.876858788165 10.25  12.875 10.25  C 14.3214285714286 10.25  15.5 11.4267857142857  15.5 12.875  C 15.5 14.3232142857143  14.3214285714286 15.5  12.875 15.5  C 11.4285714285714 15.5  10.25 14.3232142857143  10.25 12.875  C 10.25 12.6917708757359  10.2688659754931 12.5128866427974  10.3047534227128 12.3401808776974  L 5.0798226468189 9.75543826814978  C 4.59868473343727 10.2922385905241  3.90032323382785 10.6303571428571  3.125 10.6303571428571  C 1.67857142857143 10.6303571428571  0.5 9.45357142857145  0.5 8.00535714285713  C 0.5 6.55714285714287  1.67857142857143 5.38035714285713  3.125 5.38035714285713  C 3.94670578259773 5.38035714285713  4.681966155921 5.76014064093631  5.16381044371685 6.35371914286647  L 9.0456723129393 4.22192743435127  C 8.89145632103674 3.88803158177032  8.80535714285714 3.51643024170588  8.80535714285714 3.125  C 8.80535714285714 1.67678571428574  9.98392857142857 0.5  11.4303571428571 0.5  C 12.8767857142857 0.5  14.0553571428571 1.67678571428574  14.0553571428571 3.125  C 14.0553571428571 4.57321428571426  12.8767857142857 5.75  11.4303571428571 5.75  C 10.6440646791303 5.75  9.93692705526807 5.40224640352829  9.45524400073466 4.85217835416324  L 5.54852310293501 6.99677147483882  C 5.67828436161454 7.30739063119115  5.75 7.64811572260396  5.75 8.00535714285713  C 5.75 8.4063891209497  5.65962500984679 8.78660746494636  5.49821348067561 9.1267875451427  Z M 11 12.875  C 11 13.9089285714286  11.8410714285714 14.75  12.875 14.75  C 13.9089285714286 14.75  14.75 13.9089285714286  14.75 12.875  C 14.75 11.8410714285714  13.9089285714286 11  12.875 11  C 11.8410714285714 11  11 11.8410714285714  11 12.875  Z M 1.25 8.00535714285713  C 1.25 9.03928571428573  2.09107142857143 9.88035714285713  3.125 9.88035714285713  C 4.15892857142857 9.88035714285713  5 9.03928571428573  5 8.00535714285713  C 5 6.9714285714286  4.15892857142857 6.13035714285713  3.125 6.13035714285713  C 2.09107142857143 6.13035714285713  1.25 6.9714285714286  1.25 8.00535714285713  Z M 9.55535714285714 3.125  C 9.55535714285714 4.1589285714286  10.3964285714286 5  11.4303571428571 5  C 12.4642857142857 5  13.3053571428571 4.1589285714286  13.3053571428571 3.125  C 13.3053571428571 2.0910714285714  12.4642857142857 1.25  11.4303571428571 1.25  C 10.3964285714286 1.25  9.55535714285714 2.0910714285714  9.55535714285714 3.125  Z " fill-rule="nonzero" fill="#000000" stroke="none" fill-opacity="0.537254901960784" transform="matrix(1 0 0 1 16 567 )" />
  </g>
</svg>