<?xml version="1.0" encoding="utf-8"?>
<svg version="1.1" xmlns:xlink="http://www.w3.org/1999/xlink" width="18px" height="18px" xmlns="http://www.w3.org/2000/svg">
  <g transform="matrix(1 0 0 1 -16 -237 )">
    <path d="M 0.773959383620691 17.3793103448276  L 17.0222313297414 17.3793103448276  C 17.2544997801724 17.6042062823276  17.4424859806035 17.4154062801724  17.4424859806035 17.1839516314655  C 17.442486 16.9508892219828  17.2545196422414 16.7637962133621  17.0222313491379 16.7586206896552  L 1.24137931034483 16.7586206896552  L 1.24137931034483 0.934468913793112  C 1.19417434913793 0.70136681896552  1.00583086422414 0.51423410560345  0.773959383620691 0.51423410560345  C 0.541254258620692 0.51423410560345  0.353724575431038 0.70138666163793  0.620689655172414 0.934468913793112  L 0.620689655172414 17.1839516314655  C 0.353724575431038 17.415406299569  0.541274101293102 17.6042062823276  0.773959383620691 17.3793103448276  Z M 5.90742568318966 7.95692754310343  L 2.40565420474138 12.3693731573276  C 2.26117615732758 12.5499359676724  2.29154454310344 12.8158676767241  2.47294099784483 12.9602861767241  C 2.55132316163793 13.0210427715517  2.64282526939655 13.0506171982759  2.73434721982758 13.0506171982759  C 2.85786512068965 13.0506171982759  2.9805891012931 12.9964503297414  3.06389372198276 12.8914114849138  L 6.27267982112069 8.84828899784481  L 10.2459947392241 12.8224375603448  C 10.3330309073276 12.9094538663793  10.4545044116379 12.9570706939655  10.5743106271552 12.9455584913793  C 10.6957841314655 12.9357135775862  10.8074127219828 12.8749371400862  10.8796418146552 12.7781156056034  L 15.8879228857759 6.08885561637933  C 16.0274586336207 5.90335048706896  15.9897264051724 5.64071367025863  15.8033876508621 5.50117792241379  C 15.6179023836207 5.36164217456898  15.3544319030172 5.39941408836207  15.2149557025862 5.58487951293102  L 10.4987866422414 11.8851265668103  L 6.53450285560345 7.92080307543105  C 6.4491339762931 7.83710148491378  6.33750538577586 7.78948465732759  6.21275687068965 7.79932957112069  C 6.09293079310345 7.80589945474137  5.98130220258621 7.8633810387931  5.90742568318966 7.95692754310343  Z " fill-rule="nonzero" fill="#ffffff" stroke="none" fill-opacity="0.866666666666667" transform="matrix(1 0 0 1 16 237 )" />
  </g>
</svg>