<?xml version="1.0" encoding="utf-8"?>
<svg version="1.1" xmlns:xlink="http://www.w3.org/1999/xlink" width="18px" height="18px" xmlns="http://www.w3.org/2000/svg">
  <g transform="matrix(1 0 0 1 -16 -195 )">
    <path d="M 17.7057692307692 14.1793269230769  L 15.1680288461538 9.80913461538461  C 15.6180288461538 8.90697115384615  15.6872596153846 7.93341346153846  15.6872596153846 6.86033653846154  C 15.6872596153846 3.11754807692308  12.796875 0.0475961538461536  9 0.0475961538461536  C 5.203125 0.0475961538461536  2.31274038461538 3.11754807692308  2.31274038461538 6.86033653846154  C 2.31274038461538 7.93341346153846  2.38413461538461 8.90697115384615  2.83197115384615 9.80913461538461  L 0.294230769230769 14.1793269230769  C 0.294230769230769 14.1793269230769  2.03149038461538 14.8197115384615  3.82716346153846 15.1896634615385  C 5.02355769230769 16.5223557692308  5.99711538461538 17.9545673076923  5.99711538461538 17.9545673076923  L 8.37043269230769 13.4221153846154  C 8.51538461538462 13.4307692307692  8.72740384615385 13.4221153846154  8.87451923076923 13.4221153846154  C 9.02163461538462 13.4221153846154  9.23365384615385 13.4307692307692  9.37860576923077 13.4221153846154  L 11.9012019230769 17.971875  C 11.9012019230769 17.971875  12.9742788461538 16.5223557692308  14.1728365384615 15.1896634615385  C 15.9685096153846 14.8197115384615  17.7057692307692 14.1793269230769  17.7057692307692 14.1793269230769  Z M 7.34927884615384 13.3983173076923  L 5.84567307692308 16.1978365384615  C 5.84567307692308 16.1978365384615  5.00408653846154 15.1161057692308  4.19495192307692 14.3307692307692  C 3.04831730769231 14.0040865384615  1.55552884615385 13.6752403846154  1.55552884615385 13.6752403846154  L 3.32307692307692 10.6463942307692  C 4.25769230769231 11.8665865384615  5.79591346153846 13.0197115384615  7.34927884615384 13.3983173076923  Z M 14.9300480769231 6.86033653846154  C 14.9581730769231 11.5399038461538  10.3521634615385 12.6649038461538  8.87451923076923 12.6649038461538  C 7.396875 12.6649038461538  3.21274038461538 11.7800480769231  3.06995192307692 6.86033653846154  C 2.98125 3.76658653846154  5.78725961538462 0.804807692307695  8.87451923076923 0.804807692307695  C 11.9617788461538 0.804807692307695  14.9127403846154 3.76658653846154  14.9300480769231 6.86033653846154  Z M 13.8028846153846 14.3307692307692  L 11.9012019230769 16.4574519230769  L 10.3867788461538 13.4221153846154  C 11.9401442307692 13.0435096153846  13.7423076923077 11.8665865384615  14.6769230769231 10.6463942307692  L 16.4423076923077 13.6752403846154  C 16.4423076923077 13.6752403846154  14.9473557692308 14.0040865384615  13.8028846153846 14.3307692307692  Z M 12.9180288461538 6.76730769230769  C 12.9180288461538 4.60168269230769  11.1634615384615 2.84711538461538  9 2.84711538461538  C 6.83653846153846 2.84711538461538  5.08197115384615 4.60168269230769  5.08197115384615 6.76730769230769  C 5.08197115384615 8.93293269230769  6.83653846153846 10.6875  9 10.6875  C 11.1634615384615 10.6875  12.9180288461538 8.93293269230769  12.9180288461538 6.76730769230769  Z M 12.1543269230769 6.86033653846154  C 12.20625 8.8875  10.0990384615385 9.88918269230769  9.12548076923077 9.88918269230769  C 8.15408653846154 9.88918269230769  6.00793269230769 9.50408653846154  5.84567307692308 6.609375  C 5.75913461538461 5.06682692307692  7.58076923076923 3.58052884615385  9.12548076923077 3.58052884615385  C 10.6701923076923 3.58052884615385  12.1153846153846 5.315625  12.1543269230769 6.86033653846154  Z " fill-rule="nonzero" fill="#ffffff" stroke="none" fill-opacity="0.866666666666667" transform="matrix(1 0 0 1 16 195 )" />
  </g>
</svg>