<?xml version="1.0" encoding="utf-8"?>
<svg version="1.1" xmlns:xlink="http://www.w3.org/1999/xlink" width="17px" height="16px" xmlns="http://www.w3.org/2000/svg">
  <g transform="matrix(1 0 0 1 -899 -73 )">
    <path d="M 4.72246053527686 1.90476191071429  L 12.277777771875 1.90476191419681  L 12.277777771875 0.761904767857142  C 12.277777771875 0.507936517857144  12.4037037017361 0.380952386904763  12.6555555614584 0.380952375000001  C 12.907407409375 0.380952375000001  13.0333333333333 0.507936505952382  13.0333333333333 0.761904767857142  L 13.0335396804297 1.90476191071429  L 15.3 1.90476191071429  C 16.1345636187065 1.90476191071429  16.8111111052083 2.58699467021192  16.8111111052083 3.42857142857143  L 16.8111111052083 14.0952380892857  C 16.8111111052083 14.9368148476452  16.1345636187065 15.619047625  15.3 15.619047625  C 15.3 15.619047625  15.3 15.619047625  15.3 15.4285714285714  L 1.7 15.4285714285714  C 1.7 15.619047625  1.7 15.619047625  1.7 15.619047625  C 0.865436381293512 15.619047625  0.18888889479169 14.9368148655024  0.18888889479169 14.0952381071429  L 0.18888889479169 3.42857142857143  C 0.18888889479169 2.58699467021192  0.865436381293512 1.90476191071429  1.7 1.90476191071429  L 3.96666666666667 1.90476191419681  L 3.96666666666667 0.761904767857142  C 3.96666666666667 0.507936517857144  4.09259259062497 0.380952386904763  4.34444443854164 0.380952375000001  C 4.59629628645832 0.380952375000001  4.72222221631946 0.507936505952382  4.72222222812502 0.761904767857142  L 4.72246053527686 1.90476191071429  Z M 15.3 14.8571428571429  C 15.7172818142433 14.8571428571429  16.0555555614584 14.5160264733966  15.8666666666667 14.0952380892857  L 15.866666665846 6.47619048214286  L 1.13333333333333 6.47618729364742  L 1.13333333333333 14.0952380892857  C 0.944444438541643 14.5160264733966  1.2827181857567 14.8571428571429  1.7 14.8571428571429  L 15.3 14.8571428571429  Z M 12.277777771875 3.80952380357143  L 12.2777809337997 2.85714285712388  L 4.72222222812502 2.85714285707645  L 4.72222222812502 3.80952380357143  C 4.72222222812502 4.06349205357143  4.59629629826387 4.19047618452381  4.34444443854164 4.19047619642857  C 4.09259259062497 4.19047619642857  3.96666666666667 4.06349206547619  3.96666666666667 3.80952380357143  L 3.96651609616575 2.85714285714286  L 1.7 2.85714285714286  C 1.2827181857567 2.66666666071429  0.944444438541643 3.00778304446056  1.13333333333333 3.42857142857143  L 1.13333333415401 6  L 15.8666666666667 6  L 15.8666666666667 3.42857142857143  C 16.0555555614584 3.00778304446056  15.7172818142433 2.66666666071429  15.3 2.85714285714286  L 13.0333333333333 2.85714285706222  L 13.0333333333333 3.80952380357143  C 13.0333333333333 4.06349205357143  12.907407409375 4.19047618452381  12.6555555614584 4.19047619642857  C 12.4037037135417 4.19047619642857  12.2777777836805 4.06349206547619  12.277777771875 3.80952380357143  Z M 5.47777777187498 9.14285714285714  C 5.47777777187498 9.39682539285714  5.35185184791667 9.52380951785714  5.1 9.52380951785714  L 2.83333333333333 9.52380951785714  C 2.58148148541666 9.52380951785714  2.45555556145836 9.39682539285714  2.45555556145836 9.14285714285714  C 2.45555556145836 8.88888889285714  2.58148148541666 8.76190476785714  2.83333333333333 8.76190476785714  L 5.1 8.76190476785714  C 5.35185184791667 8.76190476785714  5.47777777187498 8.88888889285714  5.47777777187498 9.14285714285714  Z M 9.63333333333333 9.52380951785714  L 7.36666666666667 9.52380951785714  C 7.11481481874999 9.52380951785714  6.98888889479169 9.39682539285714  6.98888889479169 9.14285714285714  C 6.98888889479169 8.88888889285714  7.11481481874999 8.76190476785714  7.36666666666667 8.76190476785714  L 9.63333333333333 8.76190476785714  C 9.88518518125001 8.76190476785714  10.0111111052083 8.88888889285714  10.0111111052083 9.14285714285714  C 10.0111111052083 9.39682539285714  9.88518518125001 9.52380951785714  9.63333333333333 9.52380951785714  Z M 11.9 9.52380951785714  C 11.6481481520833 9.52380951785714  11.522222228125 9.39682539285714  11.522222228125 9.14285714285714  C 11.522222228125 8.88888889285714  11.6481481520833 8.76190476785714  11.9 8.76190476785714  L 14.1666666666667 8.76190476785714  C 14.4185185145833 8.76190476785714  14.5444444385416 8.88888889285714  14.5444444385416 9.14285714285714  C 14.5444444385416 9.39682539285714  14.4185185145833 9.52380951785714  14.1666666666667 9.52380951785714  L 11.9 9.52380951785714  Z M 2.45555556145836 12.1904761964286  C 2.45555556145836 11.9365079464286  2.58148148541666 11.8095238154762  2.83333333333333 11.8095238035714  L 5.1 11.8095238035714  C 5.35185184791667 11.8095238035714  5.47777777187498 11.9365079345238  5.47777777187498 12.1904761964286  C 5.47777777187498 12.4444444464286  5.35185184791667 12.5714285714286  5.1 12.5714285714286  L 2.83333333333333 12.5714285714286  C 2.58148148541666 12.5714285714286  2.45555556145836 12.4444444464286  2.45555556145836 12.1904761964286  Z M 7.36666666666667 11.8095238035714  L 9.63333333333333 11.8095238035714  C 9.88518518125001 11.8095238035714  10.0111111052083 11.9365079345238  10.0111111052083 12.1904761964286  C 10.0111111052083 12.4444444464286  9.88518518125001 12.5714285714286  9.63333333333333 12.5714285714286  L 7.36666666666667 12.5714285714286  C 7.11481481874999 12.5714285714286  6.98888889479169 12.4444444464286  6.98888889479169 12.1904761964286  C 6.98888889479169 11.9365079464286  7.11481481874999 11.8095238154762  7.36666666666667 11.8095238035714  Z M 14.1666666666667 11.8095238035714  C 14.4185185145833 11.8095238035714  14.5444444385416 11.9365079345238  14.5444444385416 12.1904761964286  C 14.5444444385416 12.4444444464286  14.4185185145833 12.5714285714286  14.1666666666667 12.5714285714286  L 11.9 12.5714285714286  C 11.6481481520833 12.5714285714286  11.522222228125 12.4444444464286  11.522222228125 12.1904761964286  C 11.522222228125 11.9365079464286  11.6481481520833 11.8095238154762  11.9 11.8095238035714  L 14.1666666666667 11.8095238035714  Z " fill-rule="nonzero" fill="#000000" stroke="none" fill-opacity="0.866666666666667" transform="matrix(1 0 0 1 899 73 )" />
  </g>
</svg>