<?xml version="1.0" encoding="utf-8"?>
<svg version="1.1" xmlns:xlink="http://www.w3.org/1999/xlink" width="18px" height="16px" xmlns="http://www.w3.org/2000/svg">
  <g transform="matrix(1 0 0 1 -1214 -73 )">
    <path d="M 10.7040468292683 3.44673226480836  L 3.96063219512195 3.44673226480836  C 3.65043512195122 3.44673226480836  3.39868097560976 3.7024825087108  3.39868097560976 4.01760334494773  C 3.39868097560976 4.33272418118467  3.65043512195122 4.58847442508711  3.96063219512195 4.58847442508711  L 10.7040468292683 4.58847442508711  C 11.014243902439 4.58847442508711  11.2659980487805 4.33272418118467  11.2659980487805 4.01760334494773  C 11.2659980487805 3.7024825087108  11.014243902439 3.44673226480836  10.7040468292683 3.44673226480836  Z M 3.96063219512195 11.4389273867596  L 6.20843707317073 11.4389273867596  C 6.51863414634146 11.4389273867596  6.77038829268293 11.1831771428571  6.77038829268293 10.8680563066202  C 6.77038829268293 10.5529354703833  6.51863414634146 10.2971852264808  6.20843707317073 10.2971852264808  L 3.96063219512195 10.2971852264808  C 3.65043512195122 10.2971852264808  3.39868097560976 10.5529354703833  3.39868097560976 10.8680563066202  C 3.39868097560976 11.1831771428571  3.65043512195122 11.4389273867596  3.96063219512195 11.4389273867596  Z M 7.89429073170732 14.2932827874564  C 7.89429073170732 13.9781619512195  7.64366048780488 13.7224117073171  7.33233951219512 13.7224117073171  L 2.27477853658537 13.7224117073171  C 1.65326048780488 13.7224117073171  1.15087609756098 13.2120529616725  1.15087609756098 12.5806695470383  L 1.15087609756098 2.30499010452962  C 1.15087609756098 1.67360668989547  1.65326048780488 1.16324794425087  2.27477853658537 1.16324794425087  L 12.3899004878049 1.16324794425087  C 13.0114185365854 1.16324794425087  13.5138029268293 1.67360668989547  13.5138029268293 2.30499010452962  L 13.5138029268293 5.15934550522648  C 13.5138029268293 5.47446634146341  13.7655570731707 5.73021658536585  14.0757541463415 5.73021658536585  C 14.3859512195122 5.73021658536585  14.6377053658537 5.47446634146341  14.6377053658537 5.15934550522648  L 14.6377053658537 2.30499010452962  C 14.6377053658537 1.04450675958188  13.6306887804878 0.021505783972126  12.3899004878049 0  L 2.27477853658537 0  C 1.03399024390244 0.021505783972126  0.0269736585365864 1.04450675958188  0 2.30499010452962  L 0 12.5806695470383  C 0.0269736585365864 13.8411528919861  1.03399024390244 14.8641538675958  2.27477853658537 14.8641538675958  L 7.33233951219512 14.8641538675958  C 7.64253658536585 14.8641538675958  7.89429073170732 14.6084036236934  7.89429073170732 14.2932827874564  Z M 7.89429073170732 7.44282982578397  C 7.89429073170732 7.12770898954704  7.64366048780488 6.8719587456446  7.33233951219512 6.8719587456446  L 3.96063219512195 6.8719587456446  C 3.65043512195122 6.8719587456446  3.39868097560976 7.12770898954704  3.39868097560976 7.44282982578397  C 3.39868097560976 7.7579506620209  3.65043512195122 8.01370090592335  3.96063219512195 8.01370090592335  L 7.33233951219512 8.01370090592335  C 7.64253658536585 8.01370090592335  7.89429073170732 7.75795066202091  7.89429073170732 7.44282982578397  Z M 17.8116058536585 15.8049494076655  C 18.0397580487805 15.5731757491289  18.0397580487805 15.1964008362369  17.8116058536585 14.9646271777003  L 16.1077697560976 13.2337460627178  C 16.5910478048781 12.5692521254355  16.8866341463415 11.7563317073171  16.8866341463415 10.8680563066202  C 16.8866341463415 8.66106871080139  15.1254790243902 6.8719587456446  12.9529756097561 6.8719587456446  C 10.780472195122 6.8719587456446  9.01931707317073 8.66106871080139  9.01931707317073 10.8680563066202  C 9.01931707317073 13.075043902439  10.780472195122 14.8641538675958  12.9529756097561 14.8641538675958  C 13.8273717073171 14.8641538675958  14.6287141463415 14.5638756794425  15.2817014634146 14.0740682926829  L 16.9855375609756 15.8049494076655  C 17.2136897560976 16.0367230662021  17.5834536585366 16.0367230662021  17.8116058536585 15.8049494076655  Z M 15.761607804878 10.8680563066202  C 15.761607804878 12.4448022299652  14.5039609756098 13.7224117073171  12.9518517073171 13.7224117073171  C 11.3997424390244 13.7224117073171  10.1420956097561 12.4448022299652  10.1420956097561 10.8680563066202  C 10.1420956097561 9.29131038327526  11.3997424390244 8.01370090592335  12.9518517073171 8.01370090592335  C 14.5039609756098 8.01370090592335  15.761607804878 9.29131038327526  15.761607804878 10.8680563066202  Z " fill-rule="nonzero" fill="#0078d7" stroke="none" transform="matrix(1 0 0 1 1214 73 )" />
  </g>
</svg>