<?xml version="1.0" encoding="utf-8"?>
<svg version="1.1" xmlns:xlink="http://www.w3.org/1999/xlink" width="14px" height="14px" xmlns="http://www.w3.org/2000/svg">
  <g transform="matrix(1 0 0 1 -158 -18 )">
    <path d="M 158 18  L 172 18  L 172 32  L 158 32  L 158 18  " fill-rule="nonzero" fill="#cccccc" stroke="none" />
    <path d="M 159 19  L 171 19  L 171 31  L 159 31  L 159 19  " fill-rule="nonzero" fill="#ffffff" stroke="none" />
    <path d="M 166.33 22.2  C 165.742 22.2  165.28 21.738  165.28 21.15  C 165.28 20.562  165.742 20.1  166.33 20.1  C 166.918 20.1  167.38 20.562  167.38 21.15  C 167.38 21.738  166.918 22.2  166.33 22.2  " fill-rule="nonzero" fill="#cccccc" stroke="none" />
    <path d="M 160 31  L 160 24.95  L 162.75 22.2  L 166.6 24.4  L 168.8 23.85  L 171 24.4  L 171 31  L 160 31  " fill-rule="nonzero" fill="#169bd5" stroke="none" />
  </g>
</svg>