<?xml version="1.0" encoding="utf-8"?>
<svg version="1.1" xmlns:xlink="http://www.w3.org/1999/xlink" width="16px" height="16px" xmlns="http://www.w3.org/2000/svg">
  <g transform="matrix(1 0 0 1 -31 -144 )">
    <path d="M 5.17777777777778 4.96444444444445  L 3.22222222222222 6.92888888888889  C 4.50222222222222 9.44444444444444  6.56 11.5022222222222  9.08 12.7822222222222  L 11.0355555555556 10.8222222222222  C 11.28 10.5777777777778  11.6311111111111 10.5066666666667  11.9377777777778 10.6044444444444  C 12.9333333333333 10.9333333333333  14.0044444444444 11.1111111111111  15.1111111111111 11.1111111111111  C 15.6044444444444 11.1111111111111  16 11.5066666666667  16 12  L 16 15.1111111111111  C 16 15.6044444444444  15.6044444444444 16  15.1111111111111 16  C 6.76444444444444 16  0 9.23555555555556  0 0.888888888888889  C 0 0.395555555555555  0.4 0  0.888888888888889 0  L 4 0  C 4.49333333333333 0  4.88888888888889 0.395555555555555  4.88888888888889 0.888888888888889  C 4.88888888888889 1.99555555555556  5.06666666666667 3.06666666666667  5.39555555555556 4.06222222222222  C 5.49333333333333 4.36888888888889  5.42222222222222 4.72  5.17777777777778 4.96444444444445  Z " fill-rule="nonzero" fill="#000000" stroke="none" transform="matrix(1 0 0 1 31 144 )" />
  </g>
</svg>