<?xml version="1.0" encoding="utf-8"?>
<svg version="1.1" xmlns:xlink="http://www.w3.org/1999/xlink" width="72px" height="40px" xmlns="http://www.w3.org/2000/svg">
  <g transform="matrix(1 0 0 1 -102 -306 )">
    <path d="M 103 308  A 1 1 0 0 1 104 307 L 172 307  A 1 1 0 0 1 173 308 L 173 344  A 1 1 0 0 1 172 345 L 104 345  A 1 1 0 0 1 103 344 L 103 308  Z " fill-rule="nonzero" fill="#f4f4f4" stroke="none" />
    <path d="M 102.5 308  A 1.5 1.5 0 0 1 104 306.5 L 172 306.5  A 1.5 1.5 0 0 1 173.5 308 L 173.5 344  A 1.5 1.5 0 0 1 172 345.5 L 104 345.5  A 1.5 1.5 0 0 1 102.5 344 L 102.5 308  Z " stroke-width="1" stroke="#dadce0" fill="none" stroke-opacity="0.996078431372549" />
  </g>
</svg>