<?xml version="1.0" encoding="utf-8"?>
<svg version="1.1" xmlns:xlink="http://www.w3.org/1999/xlink" width="16px" height="17px" xmlns="http://www.w3.org/2000/svg">
  <g transform="matrix(1 0 0 1 -362 -23 )">
    <path d="M 15.425 15.8802884615385  C 15.4229166666667 15.8353365384615  15.4166666666667 15.7924278846154  15.4125 15.7474759615385  C 15.4166666666667 15.7352163461538  15.4270833333333 15.7229567307692  15.4270833333333 15.7127403846154  C 15.4270833333333 15.6923076923077  15.4125 15.671875  15.4020833333333 15.6514423076923  C 15.3645833333333 15.3572115384615  15.2958333333333 15.0691105769231  15.175 14.7953125  C 14.94375 14.2436298076923  14.50625 13.7961538461538  14.00625 13.4671875  C 13.0166666666667 12.7969951923077  11.8104166666667 12.5477163461538  10.7708333333333 11.9694711538462  C 10.425 11.7631009615385  10.075 11.4954326923077  9.93958333333333 11.1051682692308  C 9.875 10.5698317307692  9.89791666666667 10.0304086538462  9.9 9.49507211538462  C 10.0854166666667 9.35817307692308  10.2104166666667 9.1640625  10.3229166666667 8.96790865384616  C 10.5541666666667 8.55108173076924  10.7145833333333 8.0954326923077  10.78125 7.62548076923077  C 10.95 7.59278846153847  11.0979166666667 7.49266826923077  11.19375 7.35372596153847  C 11.3729166666667 7.0921875  11.4375 6.7734375  11.4666666666667 6.46694711538462  C 11.49375 6.19519230769231  11.3833333333333 5.91526442307693  11.1625 5.74771634615385  C 11.4354166666667 4.8548076923077  11.6270833333333 3.91694711538462  11.5270833333333 2.98112980769231  C 11.46875 2.42536057692308  11.2708333333333 1.85528846153847  10.8416666666667 1.46911057692308  C 10.5458333333333 1.20144230769231  10.1520833333333 1.0625  9.76041666666667 1.0032451923077  C 9.66458333333333 0.86225961538462  9.54375 0.735576923076928  9.39375 0.647716346153851  C 8.98958333333333 0.404567307692312  8.50416666666666 0.341225961538466  8.03958333333333 0.333052884615389  C 7.21666666666667 0.345312500000004  6.35 0.482211538461543  5.67083333333333 0.96850961538462  C 5.33125 1.20757211538462  5.06041666666667 1.53653846153847  4.87916666666667 1.9063701923077  C 4.65833333333333 2.3579326923077  4.56458333333333 2.8626201923077  4.54375 3.36117788461539  C 4.51041666666667 4.16826923076924  4.65625 4.96923076923077  4.85416666666667 5.74975961538462  C 4.64583333333333 5.90913461538462  4.53333333333333 6.17067307692308  4.54791666666667 6.428125  C 4.56458333333333 6.68353365384616  4.61666666666667 6.93894230769231  4.72083333333333 7.17596153846154  C 4.8125 7.39254807692308  4.99166666666667 7.58870192307693  5.23541666666667 7.63161057692308  C 5.29791666666667 8.075  5.45208333333333 8.50408653846154  5.66666666666667 8.90048076923077  C 5.79166666666667 9.12115384615385  5.92916666666667 9.34591346153847  6.1375 9.49915865384616  C 6.1375 10.0365384615385  6.16041666666667 10.5759615384615  6.09583333333333 11.1112980769231  C 5.92708333333333 11.5832932692308  5.46875 11.8693509615385  5.04166666666667 12.0941105769231  C 4.10625 12.5558894230769  3.07708333333333 12.8215144230769  2.18125 13.3629807692308  C 1.79375 13.6061298076923  1.425 13.8942307692308  1.15208333333333 14.2620192307692  C 0.858333333333332 14.6522836538462  0.693749999999998 15.1201923076923  0.627083333333332 15.5983173076923  C 0.587499999999999 15.6371394230769  0.560416666666666 15.6759615384615  0.560416666666666 15.7168269230769  C 0.560416666666666 15.7495192307692  0.574999999999999 15.7822115384615  0.599999999999999 15.8128605769231  C 0.597916666666666 15.8373798076923  0.593749999999999 15.8598557692308  0.591666666666666 15.8823317307692  L 0.683333333333332 15.8823317307692  C 1.30833333333333 16.3195913461539  4.33958333333333 16.6526442307692  7.99166666666667 16.6526442307692  C 11.6479166666667 16.6526442307692  14.6791666666667 16.3195913461539  15.3020833333333 15.8802884615385  L 15.425 15.8802884615385  Z " fill-rule="nonzero" fill="#46b6ef" stroke="none" transform="matrix(1 0 0 1 362 23 )" />
  </g>
</svg>