<?xml version="1.0" encoding="utf-8"?>
<svg version="1.1" xmlns:xlink="http://www.w3.org/1999/xlink" width="16px" height="13px" xmlns="http://www.w3.org/2000/svg">
  <g transform="matrix(1 0 0 1 -212 -22 )">
    <path d="M 15.9333333333333 5.525  L 11 0.715  L 10.8 0.52  L 10.6 0.715  L 9.86666666666667 1.43  L 10.3333333333333 1.885  L 13.4 4.875  L 7.46666666666666 4.875  C 3.33333333333333 5.135  0.0666666666666664 8.45  0.0666666666666664 12.48  L 0.0666666666666664 12.545  L 1.4 12.545  L 1.4 12.48  C 1.4 9.165  4.06666666666667 6.435  7.46666666666667 6.175  L 13.4 6.175  L 10.3333333333333 9.165  L 10 9.49  L 9.86666666666667 9.62  L 10.8 10.53  L 11.8666666666667 9.49  L 15.9333333333333 5.525  Z " fill-rule="nonzero" fill="#0078d7" stroke="none" transform="matrix(1 0 0 1 212 22 )" />
  </g>
</svg>