<?xml version="1.0" encoding="utf-8"?>
<svg version="1.1" xmlns:xlink="http://www.w3.org/1999/xlink" width="20px" height="20px" xmlns="http://www.w3.org/2000/svg">
  <g transform="matrix(1 0 0 1 -1885 -15 )">
    <path d="M 19.8478515625 9.999921875  C 19.8478515625 4.5845703125  15.45859375 0.1953125  10.0432421875 0.1953125  C 4.6278515625 0.1953125  0.2386328125 4.5845703125  0.2386328125 9.999921875  C 0.2386328125 15.4152734375  4.6278515625 19.8046875  10.0432421875 19.8046875  C 15.4586328125 19.8046875  19.8478515625 15.415234375  19.8478515625 9.999921875  Z M 1.055703125 10  C 1.0556640625 5.044140625  5.0874609375 1.0123828125  10.0432421875 1.0123828125  C 14.9990234375 1.0123828125  19.0308203125 5.0441796875  19.0308203125 9.9999609375  C 19.0308203125 12.180234375  18.2496875 14.181328125  16.9530859375 15.7392578125  C 16.05703125 15.3650390625  13.941796875 14.6309765625  12.632421875 14.244375  C 12.5207421875 14.209296875  12.5031640625 14.203671875  12.5031640625 13.73890625  C 12.5031640625 13.355078125  12.6611328125 12.9685546875  12.81515625 12.64140625  C 12.9819140625 12.2859375  13.179765625 11.6883203125  13.2508203125 11.152109375  C 13.4494921875 10.921484375  13.7199609375 10.4666796875  13.89390625 9.5998046875  C 14.0462890625 8.83578125  13.9752734375 8.557734375  13.873984375 8.296796875  C 13.86359375 8.2692578125  13.852421875 8.2421484375  13.844453125 8.215  C 13.8061328125 8.035859375  13.8587890625 7.1051171875  13.9896875 6.3830078125  C 14.07984375 5.8875  13.9665234375 4.8338671875  13.2843359375 3.9622265625  C 12.8534765625 3.41125  12.02921875 2.7350390625  10.52359375 2.6408984375  L 9.6977734375 2.6416796875  C 8.21765625 2.735078125  7.3926171875 3.41125  6.9617578125 3.9622265625  C 6.2795703125 4.83390625  6.1662890625 5.8875390625  6.2564453125 6.38265625  C 6.3880859375 7.1051171875  6.4399609375 8.035859375  6.4024609375 8.21140625  C 6.3944921875 8.242109375  6.3833203125 8.2692578125  6.3721484375 8.296796875  C 6.2716015625 8.557734375  6.1998046875 8.83578125  6.3530078125 9.5998046875  C 6.5261328125 10.4666796875  6.796640625 10.9215234375  6.99609375 11.152109375  C 7.066328125 11.68828125  7.26421875 12.2859375  7.4317578125 12.64140625  C 7.553828125 12.9015234375  7.6112890625 13.255390625  7.6112890625 13.7556640625  C 7.6112890625 14.2204296875  7.5937109375 14.2260546875  7.4891796875 14.259140625  C 6.13515625 14.65890625  3.9800390625 15.43765625  3.1765234375 15.78953125  C 1.8544140625 14.224453125  1.055703125 12.2041796875  1.055703125 10  Z M 10.0432421875 18.98765625  C 7.6040625 18.98765625  5.3898828125 18.009453125  3.768515625 16.42640625  C 4.688515625 16.0508203125  6.522890625 15.3965234375  7.7276953125 15.0406640625  C 8.42828125 14.8196484375  8.42828125 14.229609375  8.42828125 13.7556640625  C 8.42828125 13.3626953125  8.401171875 12.7833984375  8.1713671875 12.293515625  C 8.013359375 11.9580078125  7.8330078125 11.3826953125  7.7931640625 10.9323046875  C 7.784375 10.8269921875  7.734921875 10.7296484375  7.6551171875 10.660234375  C 7.5394140625 10.5588671875  7.3040234375 10.1878515625  7.1540234375 9.439453125  C 7.03515625 8.8469921875  7.0854296875 8.71734375  7.1341015625 8.5920703125  C 7.15484375 8.53859375  7.1748046875 8.4859375  7.19078125 8.426484375  C 7.28890625 8.0678515625  7.1795703125 6.8897265625  7.060703125 6.23625  C 7.0088671875 5.9521875  7.0742578125 5.1451171875  7.6056640625 4.4652734375  C 8.0819921875 3.85609375  8.80328125 3.5165625  9.72328125 3.4579296875  L 10.498046875 3.457109375  C 11.4427734375 3.5165625  12.1640625 3.85609375  12.6412109375 4.4652734375  C 13.1726171875 5.1451171875  13.237265625 5.9521875  13.1853515625 6.2366015625  C 13.067265625 6.8897265625  12.9571484375 8.0678125  13.0552734375 8.4260546875  C 13.0720703125 8.4858984375  13.091171875 8.5385546875  13.111953125 8.59203125  C 13.1606640625 8.717265625  13.2108984375 8.846953125  13.0928125 9.4394140625  C 12.9428515625 10.1878515625  12.706640625 10.5588671875  12.5909375 10.6601953125  C 12.511953125 10.729609375  12.4625 10.826953125  12.452890625 10.932265625  C 12.4137890625 11.38265625  12.2334765625 11.95796875  12.0755078125 12.2934765625  C 11.894375 12.6784765625  11.6861328125 13.1911328125  11.6861328125 13.7388671875  C 11.6861328125 14.2128515625  11.6861328125 14.802890625  12.3938671875 15.0258984375  C 13.5468359375 15.3666015625  15.39 15.9997265625  16.3634375 16.3825390625  C 14.738125 17.991875  12.5048046875 18.98765625  10.0432421875 18.98765625  Z " fill-rule="nonzero" fill="#000000" stroke="none" transform="matrix(1 0 0 1 1885 15 )" />
  </g>
</svg>