<?xml version="1.0" encoding="utf-8"?>
<svg version="1.1" xmlns:xlink="http://www.w3.org/1999/xlink" width="16px" height="16px" xmlns="http://www.w3.org/2000/svg">
  <g transform="matrix(1 0 0 1 -407 -20 )">
    <path d="M 15.4387374615385 2.83405513461538  L 11.3061547307692 2.83405513461538  C 11.1957754230769 2.83405513461538  11.0915359423077 2.79009232692308  11.0140401730769 2.71291142307692  L 9.48215078846154 1.18102203846154  L 6.5183215 1.18102203846154  L 4.98643211538462 2.71291142307692  C 4.90893634615385 2.79009232692308  4.80316190384615 2.83405513461538  4.69402236538462 2.83405513461538  L 0.561439634615384 2.83405513461538  C 0.333281711538461 2.83405513461538  0.147571307692307 2.64895478846154  0.147571307692307 2.42172176923077  C 0.147571307692307 2.19326865384615  0.333301384615384 2.00753857692308  0.561439634615384 2.00753857692308  L 4.52307119230769 2.00753857692308  L 6.05496057692308 0.475964057692307  C 6.13245634615385 0.399098019230769  6.23823078846154 0.354505480769231  6.34707513461538 0.354505480769231  L 9.65314130769231 0.354505480769231  C 9.76383548076923 0.354505480769231  9.86807496153846 0.399098019230769  9.94555105769231 0.475964057692307  L 11.4774404423077 2.00753857692308  L 15.4387374615385 2.00753857692308  C 15.6671905769231 2.00753857692308  15.8529206538462 2.19326865384615  15.8529206538462 2.42172176923077  C 15.8529206346154 2.64895476923077  15.6671905769231 2.83405513461538  15.4387374615385 2.83405513461538  Z M 12.5468544615385 15.6459864807692  L 3.45517246153846 15.6459864807692  C 2.5431705 15.6459864807692  1.80213936538461 14.9034204038462  1.80213936538461 13.9929533846154  L 1.80213936538461 4.90127138461539  C 1.80213936538461 4.67281826923077  1.98631480769231 4.48708819230769  2.21447273076923 4.48708819230769  C 2.44292584615385 4.48708819230769  2.62712096153846 4.67281826923077  2.62712096153846 4.90127138461539  L 2.62712096153846 13.9929533846154  C 2.62712096153846 14.4477145961538  2.99917148076923 14.8185450192308  3.45517246153846 14.8185450192308  L 12.5468544615385 14.8185450192308  C 13.0013204807692 14.8185450192308  13.373371 14.4477145961538  13.373371 13.9929533846154  L 13.373371 4.90127138461539  C 13.373371 4.67281826923077  13.5575464423077 4.48708819230769  13.7857043653846 4.48708819230769  C 14.0141574807692 4.48708819230769  14.1998875576923 4.67281826923077  14.1998875576923 4.90127138461539  L 14.1998875576923 13.9929533846154  C 14.1998875576923 14.9034204038462  13.4582267115385 15.6459864807692  12.5468544615385 15.6459864807692  Z M 5.93472209615385 13.1664368461538  C 5.70626898076923 13.1664368461538  5.52053890384615 12.9807067692308  5.52053890384615 12.7522536538462  L 5.52053892307692 4.90127140384615  C 5.52053892307692 4.67281828846154  5.706269 4.48708821153846  5.93472211538462 4.48708821153846  C 6.16164026923077 4.48708821153846  6.34705548076923 4.67281828846154  6.34705548076923 4.90127140384615  L 6.34705548076923 12.7522536730769  C 6.34705546153846 12.9807264615385  6.16164025 13.1664368461538  5.93472209615385 13.1664368461538  Z M 10.0673048269231 13.1664368461538  C 9.83885171153846 13.1664368461538  9.65312163461539 12.9807067692308  9.65312163461539 12.7522536538462  L 9.65312165384615 4.90127140384615  C 9.65312165384615 4.67281828846154  9.83885173076923 4.48708821153846  10.0673048461538 4.48708821153846  C 10.294223 4.48708821153846  10.4796382115385 4.67281828846154  10.4796382115385 4.90127140384615  L 10.4796382115385 12.7522536730769  C 10.4796381923077 12.9807264615385  10.2942229807692 13.1664368461538  10.0673048269231 13.1664368461538  Z " fill-rule="nonzero" fill="#0078d7" stroke="none" transform="matrix(1 0 0 1 407 20 )" />
  </g>
</svg>