<?xml version="1.0" encoding="utf-8"?>
<svg version="1.1" xmlns:xlink="http://www.w3.org/1999/xlink" width="368px" height="496px" xmlns="http://www.w3.org/2000/svg">
  <defs>
    <filter x="1192px" y="96px" width="368px" height="496px" filterUnits="userSpaceOnUse" id="filter137">
      <feOffset dx="0" dy="5" in="SourceAlpha" result="shadowOffsetInner" />
      <feGaussianBlur stdDeviation="8" in="shadowOffsetInner" result="shadowGaussian" />
      <feComposite in2="shadowGaussian" operator="atop" in="SourceAlpha" result="shadowComposite" />
      <feColorMatrix type="matrix" values="0 0 0 0 0  0 0 0 0 0  0 0 0 0 0  0 0 0 0.23921568627451 0  " in="shadowComposite" />
    </filter>
    <g id="widget138">
      <path d="M 1209 109  A 1 1 0 0 1 1210 108 L 1542 108  A 1 1 0 0 1 1543 109 L 1543 569  A 1 1 0 0 1 1542 570 L 1210 570  A 1 1 0 0 1 1209 569 L 1209 109  Z " fill-rule="nonzero" fill="#ffffff" stroke="none" />
      <path d="M 1208.5 109  A 1.5 1.5 0 0 1 1210 107.5 L 1542 107.5  A 1.5 1.5 0 0 1 1543.5 109 L 1543.5 569  A 1.5 1.5 0 0 1 1542 570.5 L 1210 570.5  A 1.5 1.5 0 0 1 1208.5 569 L 1208.5 109  Z " stroke-width="1" stroke="#dadce0" fill="none" stroke-opacity="0.996078431372549" />
    </g>
  </defs>
  <g transform="matrix(1 0 0 1 -1192 -96 )">
    <use xlink:href="#widget138" filter="url(#filter137)" />
    <use xlink:href="#widget138" />
  </g>
</svg>