<?xml version="1.0" encoding="utf-8"?>
<svg version="1.1" xmlns:xlink="http://www.w3.org/1999/xlink" width="192px" height="24px" viewBox="138 56  192 24" xmlns="http://www.w3.org/2000/svg">
  <path d="M 139 58  A 1 1 0 0 1 140 57 L 328 57  A 1 1 0 0 1 329 58 L 329 78  A 1 1 0 0 1 328 79 L 140 79  A 1 1 0 0 1 139 78 L 139 58  Z " fill-rule="nonzero" fill="#ffffff" stroke="none" fill-opacity="0.996078431372549" />
  <path d="M 138.5 58  A 1.5 1.5 0 0 1 140 56.5 L 328 56.5  A 1.5 1.5 0 0 1 329.5 58 L 329.5 78  A 1.5 1.5 0 0 1 328 79.5 L 140 79.5  A 1.5 1.5 0 0 1 138.5 78 L 138.5 58  Z " stroke-width="1" stroke="#dadce0" fill="none" stroke-opacity="0.996078431372549" />
</svg>