<?xml version="1.0" encoding="utf-8"?>
<svg version="1.1" xmlns:xlink="http://www.w3.org/1999/xlink" width="216px" height="24px" viewBox="1303 123  216 24" xmlns="http://www.w3.org/2000/svg">
  <path d="M 1304 125  A 1 1 0 0 1 1305 124 L 1517 124  A 1 1 0 0 1 1518 125 L 1518 145  A 1 1 0 0 1 1517 146 L 1305 146  A 1 1 0 0 1 1304 145 L 1304 125  Z " fill-rule="nonzero" fill="#ffffff" stroke="none" />
  <path d="M 1303.5 125  A 1.5 1.5 0 0 1 1305 123.5 L 1517 123.5  A 1.5 1.5 0 0 1 1518.5 125 L 1518.5 145  A 1.5 1.5 0 0 1 1517 146.5 L 1305 146.5  A 1.5 1.5 0 0 1 1303.5 145 L 1303.5 125  Z " stroke-width="1" stroke="#dadce0" fill="none" stroke-opacity="0.996078431372549" />
</svg>