<?xml version="1.0" encoding="utf-8"?>
<svg version="1.1" xmlns:xlink="http://www.w3.org/1999/xlink" width="416px" height="24px" viewBox="80 201  416 24" xmlns="http://www.w3.org/2000/svg">
  <path d="M 81 203  A 1 1 0 0 1 82 202 L 494 202  A 1 1 0 0 1 495 203 L 495 223  A 1 1 0 0 1 494 224 L 82 224  A 1 1 0 0 1 81 223 L 81 203  Z " fill-rule="nonzero" fill="#ffffff" stroke="none" fill-opacity="0.996078431372549" />
  <path d="M 80.5 203  A 1.5 1.5 0 0 1 82 201.5 L 494 201.5  A 1.5 1.5 0 0 1 495.5 203 L 495.5 223  A 1.5 1.5 0 0 1 494 224.5 L 82 224.5  A 1.5 1.5 0 0 1 80.5 223 L 80.5 203  Z " stroke-width="1" stroke="#dadce0" fill="none" stroke-opacity="0.996078431372549" />
</svg>