<?xml version="1.0" encoding="utf-8"?>
<svg version="1.1" xmlns:xlink="http://www.w3.org/1999/xlink" width="72px" height="40px" xmlns="http://www.w3.org/2000/svg">
  <g transform="matrix(1 0 0 1 -110 -359 )">
    <path d="M 111 361  A 1 1 0 0 1 112 360 L 180 360  A 1 1 0 0 1 181 361 L 181 397  A 1 1 0 0 1 180 398 L 112 398  A 1 1 0 0 1 111 397 L 111 361  Z " fill-rule="nonzero" fill="#cecece" stroke="none" />
    <path d="M 110.5 361  A 1.5 1.5 0 0 1 112 359.5 L 180 359.5  A 1.5 1.5 0 0 1 181.5 361 L 181.5 397  A 1.5 1.5 0 0 1 180 398.5 L 112 398.5  A 1.5 1.5 0 0 1 110.5 397 L 110.5 361  Z " stroke-width="1" stroke="#dadce0" fill="none" stroke-opacity="0.996078431372549" />
  </g>
</svg>