<?xml version="1.0" encoding="utf-8"?>
<svg version="1.1" xmlns:xlink="http://www.w3.org/1999/xlink" width="20px" height="20px" xmlns="http://www.w3.org/2000/svg">
  <g transform="matrix(1 0 0 1 -1836 -15 )">
    <path d="M 19.98532328125 9.991312578125  C 19.98532328125 15.49832546875  15.5056938020833 19.9780082552083  9.99692208333333 19.9780082552083  C 4.48868333333333 19.9780082552083  0.00852088541666666 15.49832546875  0.00852088541666666 9.991312578125  C 0.00852088541666666 4.4825675  4.48964268229167 0.00291138020833544  9.99692208333333 0.00291138020833544  C 15.5047078125 0.00291138020833544  19.98532328125 4.48403317708334  19.98532328125 9.991312578125  Z M 19.0342880729167 9.98987354166667  C 19.0342614322917 5.00783802083333  14.9803966145833 0.952747369791667  9.99692208333333 0.952747369791667  C 5.01344755208333 0.952747369791667  0.960035755208333 5.006398984375  0.960035755208333 9.98987354166667  C 0.960035755208333 14.9720955989583  5.01344755208333 19.0259604166667  9.99692208333333 19.0259604166667  C 14.98042328125 19.0259604166667  19.0342880729167 14.9720955989583  19.0342880729167 9.98987354166667  Z M 9.27754315104167 13.227065390625  C 9.27266645833333 13.0480934114583  9.27024143229167 12.9149570052083  9.27024143229167 12.8261638802083  C 9.27024143229167 12.3013996614583  9.3453371875 11.8478138802083  9.49361 11.4664191145833  C 9.60284260416667 11.1786675520833  9.77938958333333 10.888970625  10.0213322135417 10.596315703125  C 10.1988385416667 10.3832068489583  10.5197409635417 10.0710984635417  10.98260046875 9.66260208333333  C 11.4459396614583 9.25415901041667  11.747308671875 8.92861971354166  11.8858280729167 8.686197421875  C 12.023894453125 8.44356192708333  12.0936071875 8.17872815104166  12.0936071875 7.89071010416667  C 12.0936071875 7.370822578125  11.890704765625 6.91286640625  11.4854595052083 6.51974627604166  C 11.0792016145833 6.12665278645833  10.5807662239583 5.92841385416667  9.99111268229166 5.92841385416667  C 9.42096591145833 5.92841385416667  8.945395 6.10765231770833  8.56405356770833 6.46365096354167  C 8.1821525 6.82042239583333  7.93248177083333 7.37713828125  7.8129628125 8.1352909375  L 6.43810830729166 7.9721215625  C 6.56247731770833 6.956223671875  6.9301746875 6.17856427083333  7.54181333333333 5.63815731770833  C 8.15289234375 5.09777703125  8.96205041666666 4.827586875  9.968194921875 4.827586875  C 11.0333660677083 4.827586875  11.8834297135417 5.11779013020833  12.517453203125 5.69766361979167  C 13.1519829947917 6.27729729166666  13.4690213802083 6.97863513020833  13.4690213802083 7.80069109375  C 13.4690213802083 8.27620869791667  13.356804140625 8.71516442708333  13.1339419010417 9.11630578125  C 12.9105733333333 9.51670098958333  12.4745489583333 10.0051431510417  11.8264017447917 10.57971359375  C 11.391363359375 10.967930390625  11.1055571354167 11.252244296875  10.9728737760417 11.436119609375  C 10.8397373697917 11.6195152604167  10.7392455208333 11.8292130989583  10.67491578125 12.06769140625  C 10.6095467708333 12.3061963541667  10.5729582291667 12.691481796875  10.5627251822917 13.2270120572917  L 9.27754315104167 13.2270120833333  Z M 9.195145703125 15.9094866927083  L 9.195145703125 14.385853046875  L 10.7187260416667 14.385853046875  L 10.7187260416667 15.9094866927083  L 9.195145703125 15.9094866927083  Z " fill-rule="nonzero" fill="#000000" stroke="none" fill-opacity="0.866666666666667" transform="matrix(1 0 0 1 1836 15 )" />
  </g>
</svg>