<?xml version="1.0" encoding="utf-8"?>
<svg version="1.1" xmlns:xlink="http://www.w3.org/1999/xlink" width="216px" height="25px" viewBox="1303 187  216 25" xmlns="http://www.w3.org/2000/svg">
  <path d="M 1304 189  A 1 1 0 0 1 1305 188 L 1517 188  A 1 1 0 0 1 1518 189 L 1518 210  A 1 1 0 0 1 1517 211 L 1305 211  A 1 1 0 0 1 1304 210 L 1304 189  Z " fill-rule="nonzero" fill="#f0f0f0" stroke="none" />
  <path d="M 1303.5 189  A 1.5 1.5 0 0 1 1305 187.5 L 1517 187.5  A 1.5 1.5 0 0 1 1518.5 189 L 1518.5 210  A 1.5 1.5 0 0 1 1517 211.5 L 1305 211.5  A 1.5 1.5 0 0 1 1303.5 210 L 1303.5 189  Z " stroke-width="1" stroke="#dadce0" fill="none" stroke-opacity="0.996078431372549" />
</svg>