<?xml version="1.0" encoding="utf-8"?>
<svg version="1.1" xmlns:xlink="http://www.w3.org/1999/xlink" width="158px" height="22px" viewBox="54 33  158 22" xmlns="http://www.w3.org/2000/svg">
  <path d="M 55 35  A 1 1 0 0 1 56 34 L 210 34  A 1 1 0 0 1 211 35 L 211 53  A 1 1 0 0 1 210 54 L 56 54  A 1 1 0 0 1 55 53 L 55 35  Z " fill-rule="nonzero" fill="#ffffff" stroke="none" />
  <path d="M 54.5 35  A 1.5 1.5 0 0 1 56 33.5 L 210 33.5  A 1.5 1.5 0 0 1 211.5 35 L 211.5 53  A 1.5 1.5 0 0 1 210 54.5 L 56 54.5  A 1.5 1.5 0 0 1 54.5 53 L 54.5 35  Z " stroke-width="1" stroke="#dadce0" fill="none" stroke-opacity="0.996078431372549" />
</svg>