<?xml version="1.0" encoding="utf-8"?>
<svg version="1.1" xmlns:xlink="http://www.w3.org/1999/xlink" width="20px" height="14px" xmlns="http://www.w3.org/2000/svg">
  <g transform="matrix(1 0 0 1 -16 -429 )">
    <path d="M 6 2.03636363636363  C 6 2.29090909090911  5.875 2.41818181818183  5.625 2.41818181818183  C 5.375 2.41818181818183  5.25 2.29090909090911  5.25 2.03636363636363  L 5.25 1.27272727272727  C 5.25 1.01818181818183  5.375 0.890909090909076  5.625 0.890909090909076  C 5.875 0.890909090909076  6 1.01818181818183  6 1.27272727272727  L 6 2.03636363636363  Z M 6 10.5636363636364  C 6 10.8181818181818  5.875 11.0727272727273  5.625 11.0727272727273  C 5.375 11.0727272727273  5.25 10.9454545454546  5.25 10.6909090909091  L 5.25 9.03636363636367  C 5.25 8.78181818181815  5.375 8.65454545454547  5.625 8.65454545454547  C 5.875 8.65454545454547  6 8.78181818181815  6 9.03636363636367  L 6 10.5636363636364  Z M 6 7.76363636363639  C 6 8.01818181818183  5.875 8.14545454545452  5.625 8.14545454545452  C 5.375 8.14545454545452  5.25 8.01818181818183  5.25 7.76363636363639  L 5.25 6.23636363636361  C 5.25 5.98181818181817  5.375 5.85454545454548  5.625 5.85454545454548  C 5.875 5.85454545454548  6 5.98181818181817  6 6.23636363636361  L 6 7.76363636363639  Z M 6 4.83636363636365  C 6 5.09090909090909  5.875 5.34545454545453  5.625 5.34545454545453  C 5.375 5.34545454545453  5.25 5.21818181818185  5.25 4.96363636363633  L 5.25 3.3090909090909  C 5.25 3.05454545454546  5.375 2.92727272727274  5.625 2.92727272727274  C 5.875 2.92727272727274  6 3.18181818181818  6 3.3090909090909  L 6 4.83636363636365  Z M 6 12.7272727272727  C 6 12.9818181818182  5.875 13.1090909090909  5.625 13.1090909090909  C 5.375 13.1090909090909  5.25 12.9818181818182  5.25 12.7272727272727  L 5.25 11.9636363636363  C 5.25 11.7090909090909  5.375 11.5818181818182  5.625 11.5818181818182  C 5.875 11.5818181818182  6 11.7090909090909  6 11.9636363636363  L 6 12.7272727272727  Z M 12.625 7.3818181818182  L 12.625 8.14545454545452  L 14.25 8.14545454545452  C 14.5 8.14545454545452  14.625 8.27272727272727  14.625 8.52727272727271  C 14.625 8.78181818181815  14.5 8.90909090909091  14.25 8.90909090909091  L 12.625 8.90909090909091  L 12.625 10.3090909090909  C 12.625 10.4363636363636  12.625 10.5636363636364  12.5 10.6909090909091  C 12.5 10.6909090909091  12.375 10.8181818181818  12.25 10.8181818181818  C 12.125 10.8181818181818  12 10.8181818181818  12 10.6909090909091  C 12 10.6909090909091  11.875 10.5636363636364  11.875 10.3090909090909  L 11.875 8.78181818181815  L 10.25 8.78181818181815  C 10 8.78181818181815  9.875 8.78181818181815  9.875 8.52727272727271  C 9.875 8.27272727272727  10 8.14545454545452  10.25 8.14545454545452  L 11.875 8.14545454545452  L 11.875 7.25454545454544  L 10.25 7.25454545454544  C 10 7.25454545454544  9.875 7.12727272727276  9.875 6.87272727272724  C 9.875 6.6181818181818  10 6.49090909090912  10.125 6.49090909090912  L 11.375 6.49090909090912  C 11.25 6.10909090909092  11 5.72727272727273  10.75 5.34545454545453  L 10 4.20000000000001  C 9.875 3.94545454545454  9.875 3.81818181818182  10.125 3.6909090909091  C 10.25 3.6909090909091  10.25 3.56363636363638  10.375 3.56363636363638  C 10.5 3.56363636363638  10.5 3.6909090909091  10.625 3.81818181818182  L 12.25 6.6181818181818  L 12.5 6.6181818181818  C 12.75 6.10909090909092  13 5.72727272727273  13.25 5.21818181818185  C 13.5 4.70909090909089  13.75 4.32727272727273  14 3.81818181818182  C 14.125 3.6909090909091  14.125 3.56363636363638  14.25 3.56363636363638  C 14.375 3.56363636363638  14.375 3.56363636363638  14.5 3.6909090909091  C 14.625 3.6909090909091  14.625 3.81818181818182  14.625 3.94545454545454  C 14.625 4.07272727272726  14.625 4.07272727272726  14.5 4.20000000000001  L 13.125 6.6181818181818  L 14.25 6.6181818181818  C 14.5 6.6181818181818  14.625 6.74545454545456  14.625 7  C 14.625 7.25454545454544  14.5 7.3818181818182  14.25 7.3818181818182  L 12.625 7.3818181818182  Z M 20 10.5636363636364  C 20 12.3454545454545  18.75 13.7454545454546  17.25 13.7454545454546  L 2 13.7454545454546  C 0.875 13.7454545454546  0 12.7272727272727  0 11.4545454545455  L 0 2.54545454545455  C 0 1.27272727272727  0.875 0.25454545454544  2 0.25454545454544  L 17.25 0.25454545454544  C 18.75 0.25454545454544  20 1.65454545454547  20 3.43636363636362  L 20 4.83636363636365  L 19.625 5.21818181818185  C 18.75 5.21818181818185  18.125 5.98181818181817  18.125 7  C 18.125 8.01818181818183  18.75 8.65454545454547  19.625 8.78181818181815  L 20 9.16363636363635  L 20 10.5636363636364  Z M 17.25 1  L 2 1  C 1.25 1.01818181818183  0.75 1.65454545454547  0.75 2.54545454545455  L 0.75 11.5818181818182  C 0.75 12.3454545454545  1.375 13.1090909090909  2 13  L 17.25 13  C 18.375 13.1090909090909  19.375 12.0909090909091  19.375 10.6909090909091  L 19.375 9.41818181818179  C 18.25 9.16363636363635  17.5 8.27272727272727  17.5 7  C 17.5 5.72727272727273  18.25 4.83636363636365  19.375 4.58181818181821  L 19.375 3.43636363636362  C 19.375 2.16363636363635  18.375 1.01818181818183  17.25 1  Z " fill-rule="nonzero" fill="#000000" stroke="none" fill-opacity="0.537254901960784" transform="matrix(1 0 0 1 16 429 )" />
  </g>
</svg>