<?xml version="1.0" encoding="utf-8"?>
<svg version="1.1" xmlns:xlink="http://www.w3.org/1999/xlink" width="23px" height="16px" xmlns="http://www.w3.org/2000/svg">
  <g transform="matrix(1 0 0 1 -16 -318 )">
    <path d="M 19.98125 15.2727272727273  C 19.98125 12.8  18.6875 10.4727272727273  16.53125 9.16363636363636  L 15.95625 10.1818181818182  C 17.825 11.2  18.83125 13.2363636363636  18.83125 15.2727272727273  L 19.98125 15.2727272727273  Z M 16.24375 4.65454545454546  C 16.24375 2.03636363636364  13.94375 0  11.35625 0  C 8.76875 0  6.75625 2.18181818181818  6.75625 4.8  C 6.75625 6.54545454545455  7.61875 8  8.9125 8.87272727272727  C 6.325 9.74545454545454  4.3125 12.3636363636364  4.3125 15.4181818181818  L 5.4625 15.4181818181818  C 5.4625 12.2181818181818  8.19375 9.45454545454546  11.5 9.45454545454546  C 14.0875 9.45454545454546  16.24375 7.27272727272727  16.24375 4.65454545454546  Z M 14.80625 4.8  C 14.95 6.69090909090909  13.36875 8.29090909090909  11.35625 8.29090909090909  C 9.4875 8.29090909090909  7.90625 6.69090909090909  7.90625 4.8  C 7.90625 2.90909090909091  9.4875 1.30909090909091  11.35625 1.30909090909091  C 13.225 1.30909090909091  14.80625 2.90909090909091  14.80625 4.8  Z M 15.95625 9.16363636363636  C 18.1125 9.16363636363636  19.8375 7.41818181818182  19.8375 5.38181818181818  C 19.8375 3.34545454545455  18.25625 1.6  16.1 1.6  C 16.24375 1.89090909090909  16.53125 2.32727272727273  16.675 2.61818181818182  C 17.96875 2.90909090909091  18.83125 4.07272727272727  18.83125 5.38181818181818  C 18.83125 6.98181818181818  17.5375 8.29090909090909  15.95625 8.29090909090909  C 15.66875 8.72727272727273  15.38125 9.01818181818182  15.09375 9.30909090909091  C 15.38125 9.30909090909091  15.66875 9.16363636363636  15.95625 9.16363636363636  Z M 23 13.8181818181818  C 23 11.7818181818182  21.99375 9.89090909090909  20.26875 8.87272727272727  L 19.8375 9.74545454545454  C 21.275 10.6181818181818  22.1375 12.2181818181818  22.1375 13.8181818181818  L 23 13.8181818181818  Z M 2.73125 8.87272727272727  C 1.00625 9.89090909090909  0 11.7818181818182  0 13.8181818181818  L 1.00625 13.8181818181818  C 1.00625 12.0727272727273  1.86875 10.4727272727273  3.30625 9.74545454545454  L 2.73125 8.87272727272727  Z M 6.75625 9.01818181818182  C 7.1875 9.16363636363636  7.475 9.16363636363636  7.7625 9.16363636363636  C 7.475 8.87272727272727  7.1875 8.58181818181818  6.9 8.14545454545454  C 5.31875 8.14545454545454  4.025 6.83636363636364  4.025 5.23636363636364  C 4.025 3.92727272727273  5.03125 2.76363636363636  6.18125 2.47272727272727  C 6.46875 2.18181818181818  6.6125 1.89090909090909  6.75625 1.45454545454545  C 4.74375 1.45454545454545  3.01875 3.2  3.01875 5.23636363636364  C 3.01875 7.27272727272727  4.74375 9.01818181818182  6.75625 9.01818181818182  Z " fill-rule="nonzero" fill="#000000" stroke="none" fill-opacity="0.537254901960784" transform="matrix(1 0 0 1 16 318 )" />
  </g>
</svg>