<?xml version="1.0" encoding="utf-8"?>
<svg version="1.1" xmlns:xlink="http://www.w3.org/1999/xlink" width="16px" height="16px" xmlns="http://www.w3.org/2000/svg">
  <g transform="matrix(1 0 0 1 -315 -20 )">
    <path d="M 8 15.9665993181818  C 9.07528620454543 15.9665993181818  10.1182491590909 15.7554208636364  11.1008754318182 15.3395286136364  C 12.0490235909091 14.9387205227273  12.9023569090909 14.363367  13.6328619545455 13.6328619545455  C 14.363367 12.9023569090909  14.9387205454545 12.0490235681818  15.3395286136363 11.1008754318182  C 15.7554208636363 10.1182491590909  15.9665993181818 9.07528620454546  15.9665993181818 8  C 15.9665993181818 6.92471379545454  15.7554208863636 5.88175084090909  15.3395286136363 4.89912456818182  C 14.9387205227273 3.95097640909091  14.363367 3.09764309090909  13.6328619545455 2.36713804545455  C 12.9023569090909 1.636633  12.0490235681818 1.06127945454546  11.1008754318182 0.660471386363637  C 10.1182491590909 0.244579136363639  9.07528620454543 0.033400681818183  8 0.033400681818183  C 6.92471379545457 0.033400681818183  5.8817508409091 0.244579136363639  4.89912456818183 0.660471386363637  C 3.95097640909088 1.06127947727273  3.0976430909091 1.636633  2.3671380454545 2.36713804545455  C 1.63663299999999 3.09764309090909  1.06127945454541 3.95097643181818  0.660471386363662 4.89912456818182  C 0.244579136363592 5.88175084090909  0.0334006818181727 6.92471379545455  0.0334006818181727 8  C 0.0334006818181727 9.07528620454546  0.244579136363592 10.1182491590909  0.660471386363662 11.1008754318182  C 1.0612794772727 12.0490235909091  1.63663299999999 12.9023569090909  2.3671380454545 13.6328619545455  C 3.0976430909091 14.363367  3.95097643181816 14.9387205454545  4.89912456818183 15.3395286136364  C 5.8817508409091 15.7554208636364  6.92471379545457 15.9665993181818  8 15.9665993181818  Z M 15.2102356818182 8.00215488636363  C 15.2102356818182 12.0468686818182  12.0770370454546 15.2123905681818  8.0344781136364 15.2317845227273  C 3.95313131818181 15.2511784545455  0.748821545454534 12.0447138181818  0.768215477272696 7.96552188636363  C 0.78760940909094 3.92296295454546  3.95313129545453 0.770370363636366  8 0.770370363636366  C 12.0576430909091 0.770370363636366  15.2102356818182 3.94235688636364  15.2102356818182 8.00215488636363  Z M 3.84538720454549 10.0773063863636  C 3.63851852272728 10.0773063863636  3.47259259090912 10.2712457727273  3.47259259090912 10.5082828181818  C 3.47259259090912 10.7453198636364  3.64067340909093 10.93925925  3.84538720454549 10.9090909090909  L 12.1546127954546 10.9090909090909  C 12.3614814772727 10.93925925  12.5274074090909 10.7453198636364  12.5274074090909 10.5082828181818  C 12.5274074090909 10.2690909090909  12.3614814772727 10.0773063863636  12.1546127954545 10.0773063863636  L 3.84538720454549 10.0773063863636  Z M 3.47259259090912 8.09265993181818  C 3.47259259090912 8.32969697727273  3.64067340909093 8.52363636363636  3.84538720454549 8.52363636363636  L 12.1546127954546 8.52363636363636  C 12.3614814772727 8.52363636363636  12.5274074090909 8.32969697727273  12.5274074090909 8.09265993181818  C 12.5274074090909 7.85562288636363  12.3614814772727 7.6616835  12.1546127954545 7.6616835  L 3.84538720454549 7.6616835  C 3.63851852272728 7.6616835  3.47259259090912 7.85562288636363  3.47259259090912 8.09265993181818  Z M 3.84538720454549 5.92269361363637  L 12.1546127954546 5.92269361363637  C 12.3614814772727 5.92269361363637  12.5274074090909 5.72875422727273  12.5274074090909 5.49171718181818  C 12.5274074090909 5.25468013636364  12.3614814772727 5.06074075  12.1546127954545 5.09090909090909  L 3.84538720454549 5.09090909090909  C 3.63851852272728 5.06074075  3.47259259090912 5.25468013636364  3.47259259090912 5.49171718181818  C 3.47259259090912 5.72875422727273  3.64067340909093 5.92269361363637  3.84538720454549 5.92269361363637  Z " fill-rule="nonzero" fill="#0078d7" stroke="none" transform="matrix(1 0 0 1 315 20 )" />
  </g>
</svg>