<?xml version="1.0" encoding="utf-8"?>
<svg version="1.1" xmlns:xlink="http://www.w3.org/1999/xlink" width="192px" height="32px" viewBox="241 17  192 32" xmlns="http://www.w3.org/2000/svg">
  <path d="M 242 19  A 1 1 0 0 1 243 18 L 431 18  A 1 1 0 0 1 432 19 L 432 47  A 1 1 0 0 1 431 48 L 243 48  A 1 1 0 0 1 242 47 L 242 19  Z " fill-rule="nonzero" fill="#ffffff" stroke="none" />
  <path d="M 241.5 19  A 1.5 1.5 0 0 1 243 17.5 L 431 17.5  A 1.5 1.5 0 0 1 432.5 19 L 432.5 47  A 1.5 1.5 0 0 1 431 48.5 L 243 48.5  A 1.5 1.5 0 0 1 241.5 47 L 241.5 19  Z " stroke-width="1" stroke="#dadce0" fill="none" stroke-opacity="0.996078431372549" />
</svg>