<?xml version="1.0" encoding="utf-8"?>
<svg version="1.1" xmlns:xlink="http://www.w3.org/1999/xlink" width="192px" height="26px" viewBox="80 168  192 26" xmlns="http://www.w3.org/2000/svg">
  <path d="M 81 170  A 1 1 0 0 1 82 169 L 270 169  A 1 1 0 0 1 271 170 L 271 192  A 1 1 0 0 1 270 193 L 82 193  A 1 1 0 0 1 81 192 L 81 170  Z " fill-rule="nonzero" fill="#ffffff" stroke="none" fill-opacity="0.996078431372549" />
  <path d="M 80.5 170  A 1.5 1.5 0 0 1 82 168.5 L 270 168.5  A 1.5 1.5 0 0 1 271.5 170 L 271.5 192  A 1.5 1.5 0 0 1 270 193.5 L 82 193.5  A 1.5 1.5 0 0 1 80.5 192 L 80.5 170  Z " stroke-width="1" stroke="#dadce0" fill="none" stroke-opacity="0.996078431372549" />
</svg>