<?xml version="1.0" encoding="utf-8"?>
<svg version="1.1" xmlns:xlink="http://www.w3.org/1999/xlink" width="242px" height="304px" xmlns="http://www.w3.org/2000/svg">
  <defs>
    <filter x="296px" y="30px" width="242px" height="304px" filterUnits="userSpaceOnUse" id="filter511">
      <feOffset dx="0" dy="5" in="SourceAlpha" result="shadowOffsetInner" />
      <feGaussianBlur stdDeviation="8" in="shadowOffsetInner" result="shadowGaussian" />
      <feComposite in2="shadowGaussian" operator="atop" in="SourceAlpha" result="shadowComposite" />
      <feColorMatrix type="matrix" values="0 0 0 0 0  0 0 0 0 0  0 0 0 0 0  0 0 0 0.243137254901961 0  " in="shadowComposite" />
    </filter>
    <g id="widget512">
      <path d="M 313 43  A 1 1 0 0 1 314 42 L 520 42  A 1 1 0 0 1 521 43 L 521 311  A 1 1 0 0 1 520 312 L 314 312  A 1 1 0 0 1 313 311 L 313 43  Z " fill-rule="nonzero" fill="#ffffff" stroke="none" />
      <path d="M 312.5 43  A 1.5 1.5 0 0 1 314 41.5 L 520 41.5  A 1.5 1.5 0 0 1 521.5 43 L 521.5 311  A 1.5 1.5 0 0 1 520 312.5 L 314 312.5  A 1.5 1.5 0 0 1 312.5 311 L 312.5 43  Z " stroke-width="1" stroke="#dadce0" fill="none" stroke-opacity="0.866666666666667" />
    </g>
  </defs>
  <g transform="matrix(1 0 0 1 -296 -30 )">
    <use xlink:href="#widget512" filter="url(#filter511)" />
    <use xlink:href="#widget512" />
  </g>
</svg>