<?xml version="1.0" encoding="utf-8"?>
<svg version="1.1" xmlns:xlink="http://www.w3.org/1999/xlink" width="384px" height="202px" xmlns="http://www.w3.org/2000/svg">
  <g transform="matrix(1 0 0 1 -1160 -103 )">
    <path d="M 1161 105  A 1 1 0 0 1 1162 104 L 1542 104  A 1 1 0 0 1 1543 105 L 1543 303  A 1 1 0 0 1 1542 304 L 1162 304  A 1 1 0 0 1 1161 303 L 1161 105  Z " fill-rule="nonzero" fill="#ffffff" stroke="none" />
    <path d="M 1160.5 105  A 1.5 1.5 0 0 1 1162 103.5 L 1542 103.5  A 1.5 1.5 0 0 1 1543.5 105 L 1543.5 303  A 1.5 1.5 0 0 1 1542 304.5 L 1162 304.5  A 1.5 1.5 0 0 1 1160.5 303 L 1160.5 105  Z " stroke-width="1" stroke="#dadce0" fill="none" stroke-opacity="0.996078431372549" />
  </g>
</svg>