<?xml version="1.0" encoding="utf-8"?>
<svg version="1.1" xmlns:xlink="http://www.w3.org/1999/xlink" width="16px" height="16px" xmlns="http://www.w3.org/2000/svg">
  <g transform="matrix(1 0 0 1 -16 -8 )">
    <path d="M 8 15.4635568571429  C 3.88571428571428 15.4635568571429  0.536443142857146 12.1142857142857  0.536443142857146 8  C 0.536443142857146 3.88571428571428  3.88571428571428 0.536443142857142  8 0.536443142857142  C 12.1142857142857 0.536443142857142  15.4635568571429 3.88571428571428  15.4635568571429 8  C 15.4635568571429 12.1142857142857  12.1142857142857 15.4635568571429  8 15.4635568571429  Z M 8 1.28279883928572  C 4.29620991071429 1.28279883928572  1.28279883928571 4.29620991071429  1.28279883928571 8  C 1.28279883928571 11.7037900892857  4.29620991071429 14.7172011607143  8 14.7172011607143  C 11.7037900892857 14.7172011607143  14.7172011607143 11.7037900892857  14.7172011607143 8  C 14.7172011607143 4.29620991071429  11.7037900892857 1.28279883928572  8 1.28279883928572  Z M 8 11.7504373214286  C 7.69084935065043 11.7504373214286  7.44023323214286 11.4998211793286  7.44023323214286 11.190670529979  C 7.44023323214286 10.8815198806295  7.69084935065043 10.6309037621219  8 10.6309037621219  C 8.30915064934957 10.6309037621219  8.55976676785714 10.8815199042219  8.55976676785714 11.1906705535714  C 8.55976676785714 11.499821202921  8.30915064934957 11.7504373214286  8 11.7504373214286  Z M 8 3.87638483928571  C 8.20524780357143 3.87638483928571  8.37317783928571 4.044314875  8.37317783928571 4.24956267857143  L 8.37317783928571 8.91428571428571  C 8.37317783928571 9.12886298214286  8.20524780357143 9.28746355357143  8 9.28746355357143  C 7.79475217857142 9.28746355357143  7.62682216071429 9.11953351785714  7.62682216071429 8.91428571428571  L 7.62682216071429 4.24956267857143  C 7.62682216071429 4.04431485714286  7.79475219642857 3.87638483928571  8 3.87638483928571  Z " fill-rule="nonzero" fill="#000000" stroke="none" fill-opacity="0.866666666666667" transform="matrix(1 0 0 1 16 8 )" />
  </g>
</svg>