<?xml version="1.0" encoding="utf-8"?>
<svg version="1.1" xmlns:xlink="http://www.w3.org/1999/xlink" width="417px" height="40px" xmlns="http://www.w3.org/2000/svg">
  <g transform="matrix(1 0 0 1 -16 -65 )">
    <path d="M 17 67  A 1 1 0 0 1 18 66 L 431 66  A 1 1 0 0 1 432 67 L 432 103  A 1 1 0 0 1 431 104 L 18 104  A 1 1 0 0 1 17 103 L 17 67  Z " fill-rule="nonzero" fill="#f4f4f4" stroke="none" />
    <path d="M 16.5 67  A 1.5 1.5 0 0 1 18 65.5 L 431 65.5  A 1.5 1.5 0 0 1 432.5 67 L 432.5 103  A 1.5 1.5 0 0 1 431 104.5 L 18 104.5  A 1.5 1.5 0 0 1 16.5 103 L 16.5 67  Z " stroke-width="1" stroke="#dadce0" fill="none" stroke-opacity="0.866666666666667" />
  </g>
</svg>