<?xml version="1.0" encoding="utf-8"?>
<svg version="1.1" xmlns:xlink="http://www.w3.org/1999/xlink" width="16px" height="16px" xmlns="http://www.w3.org/2000/svg">
  <g transform="matrix(1 0 0 1 -249 -25 )">
    <path d="M 14.769144609375 16  L 9.8468659375 11.0777213125  C 8.78158416703247 11.8766826421618  7.48590199318895 12.3085767008929  6.15429977901786 12.3085767008929  C 2.7553864888307 12.3085767008929  2.28571428569679E-05 9.55321306920502  2.28571428569679E-05 6.15429977901786  C 2.28571428569679E-05 2.7553864888307  2.7553864888307 2.2857142859701E-05  6.15429977901786 2.2857142859701E-05  C 9.55321306920502 2.2857142859701E-05  12.3085767008929 2.7553864888307  12.3085767008929 6.15429977901786  C 12.3085767008929 7.48590199318896  11.8766826421618 8.78158416703246  11.0777213125 9.8468659375  L 16 14.769144609375  L 14.769144609375 16  Z M 6.15429978125 11.07657846875  L 6.15429978125 11.0777213125  C 8.87343041426267 11.0777213125  11.0777213203125 8.87343040645017  11.0777213203125 6.1542997734375  C 11.0777213203125 3.43516914042483  8.87343041426267 1.230878234375  6.15429978125 1.230878234375  C 3.46472917286929 1.27185877709408  1.30588690338818 3.46384555442302  1.30588690338818 6.1537283515625  C 1.30588690338818 8.84361114870199  3.46472917286929 11.0355979260309  6.15429978125 11.07657846875  Z " fill-rule="nonzero" fill="#000000" stroke="none" fill-opacity="0.866666666666667" transform="matrix(1 0 0 1 249 25 )" />
  </g>
</svg>