<?xml version="1.0" encoding="utf-8"?>
<svg version="1.1" xmlns:xlink="http://www.w3.org/1999/xlink" width="472px" height="159px" xmlns="http://www.w3.org/2000/svg">
  <g transform="matrix(1 0 0 1 0 -128 )">
    <path d="M 1 130  A 1 1 0 0 1 2 129 L 470 129  A 1 1 0 0 1 471 130 L 471 285  A 1 1 0 0 1 470 286 L 2 286  A 1 1 0 0 1 1 285 L 1 130  Z " fill-rule="nonzero" fill="#f4f4f4" stroke="none" />
    <path d="M 0.5 130  A 1.5 1.5 0 0 1 2 128.5 L 470 128.5  A 1.5 1.5 0 0 1 471.5 130 L 471.5 285  A 1.5 1.5 0 0 1 470 286.5 L 2 286.5  A 1.5 1.5 0 0 1 0.5 285 L 0.5 130  Z " stroke-width="1" stroke="#dadce0" fill="none" stroke-opacity="0.866666666666667" />
  </g>
</svg>