<?xml version="1.0" encoding="utf-8"?>
<svg version="1.1" xmlns:xlink="http://www.w3.org/1999/xlink" width="494px" height="294px" xmlns="http://www.w3.org/2000/svg">
  <defs>
    <filter x="9px" y="248px" width="500px" height="300px" filterUnits="userSpaceOnUse" id="filter731">
      <feOffset dx="0" dy="5" in="SourceAlpha" result="shadowOffsetInner" />
      <feGaussianBlur stdDeviation="8" in="shadowOffsetInner" result="shadowGaussian" />
      <feComposite in2="shadowGaussian" operator="atop" in="SourceAlpha" result="shadowComposite" />
      <feColorMatrix type="matrix" values="0 0 0 0 0  0 0 0 0 0  0 0 0 0 0  0 0 0 0.23921568627451 0  " in="shadowComposite" />
    </filter>
    <g id="widget732">
      <path d="M 29 264  A 1 1 0 0 1 30 263 L 488 263  A 1 1 0 0 1 489 264 L 489 522  A 1 1 0 0 1 488 523 L 30 523  A 1 1 0 0 1 29 522 L 29 264  Z " fill-rule="nonzero" fill="#ffffff" stroke="none" />
      <path d="M 28.5 264  A 1.5 1.5 0 0 1 30 262.5 L 488 262.5  A 1.5 1.5 0 0 1 489.5 264 L 489.5 522  A 1.5 1.5 0 0 1 488 523.5 L 30 523.5  A 1.5 1.5 0 0 1 28.5 522 L 28.5 264  Z " stroke-width="1" stroke="#dadce0" fill="none" stroke-opacity="0.996078431372549" />
    </g>
  </defs>
  <g transform="matrix(1 0 0 1 -12 -251 )">
    <use xlink:href="#widget732" filter="url(#filter731)" />
    <use xlink:href="#widget732" />
  </g>
</svg>