<?xml version="1.0" encoding="utf-8"?>
<svg version="1.1" xmlns:xlink="http://www.w3.org/1999/xlink" width="44px" height="20px" xmlns="http://www.w3.org/2000/svg">
  <g>
    <path d="M 1 10  A 9 9 0 0 1 10 1 L 34 1  A 9 9 0 0 1 43 10 A 9 9 0 0 1 34 19 L 10 19  A 9 9 0 0 1 1 10 Z " fill-rule="nonzero" fill="#ffffff" stroke="none" fill-opacity="0.698039215686274" />
    <path d="M 0.5 10  A 9.5 9.5 0 0 1 10 0.5 L 34 0.5  A 9.5 9.5 0 0 1 43.5 10 A 9.5 9.5 0 0 1 34 19.5 L 10 19.5  A 9.5 9.5 0 0 1 0.5 10 Z " stroke-width="1" stroke="#000000" fill="none" stroke-opacity="0.537254901960784" />
  </g>
</svg>