<?xml version="1.0" encoding="utf-8"?>
<svg version="1.1" xmlns:xlink="http://www.w3.org/1999/xlink" width="16px" height="16px" xmlns="http://www.w3.org/2000/svg">
  <g transform="matrix(1 0 0 1 -105 -243 )">
    <path d="M 13.9611111111111 11.5018518518519  C 14.8888888888889 10.8259259259259  15.9925925925926 10.2111111111111  15.95 8.70555555555556  C 15.9222222222222 7.6962962962963  15.3055555555556 7.23148148148148  14.9555555555556 6.46111111111111  C 15.0425925925926 5.88148148148148  15.2611111111111 5.40185185185185  15.25 4.8037037037037  C 15.2222222222222 3.11481481481482  13.7611111111111 2.17962962962963  12.0462962962963 2.04259259259259  C 11.4888888888889 1.23518518518519  10.6518518518519 0.0407407407407416  9.31666666666666 0.0407407407407416  C 9.07777777777778 0.0407407407407416  8.82222222222222 0.0796296296296304  8.54814814814815 0.164814814814816  C 8.09814814814815 0.307407407407408  7.38518518518518 1.01111111111111  6.96666666666667 1.04814814814815  C 6.9537037037037 1.05  6.94074074074074 1.05  6.92592592592592 1.05  C 6.70555555555555 1.05  6.43518518518518 0.905555555555556  6.22962962962963 0.864814814814816  C 5.97037037037037 0.812962962962964  5.72592592592592 0.78888888888889  5.49259259259259 0.78888888888889  C 3.73518518518518 0.78888888888889  2.73888888888889 2.20185185185185  2.62222222222222 3.99444444444445  C 1.64814814814815 4.61851851851852  0.155555555555554 5.68148148148148  0.709259259259258 7.45370370370371  C 0.890740740740739 8.03333333333334  1.41111111111111 8.52037037037037  1.62962962962963 9.03518518518519  C 1.54814814814815 9.60740740740741  1.33333333333333 10.0388888888889  1.33518518518518 10.6185185185185  C 1.33888888888889 12.3611111111111  2.81851851851852 13.2240740740741  4.53888888888889 13.3796296296296  C 5.12222222222222 14.2777777777778  5.93518518518518 15.4111111111111  7.24444444444444 15.4111111111111  C 7.47962962962963 15.4111111111111  7.72962962962963 15.3740740740741  7.99814814814815 15.2944444444444  C 8.61296296296296 15.1092592592593  8.97592592592592 14.6407407407407  9.58148148148148 14.3740740740741  C 10.1537037037037 14.4574074074074  10.5981481481481 14.6685185185185  11.1851851851852 14.6685185185185  L 11.237037037037 14.6685185185185  C 12.937037037037 14.6314814814815  13.8074074074074 13.2092592592593  13.9611111111111 11.5018518518519  Z M 15.2203703703704 8.71851851851852  C 15.2481481481481 9.66111111111111  14.6981481481481 10.1  13.8018518518519 10.737037037037  C 13.7074074074074 10.8037037037037  13.612962962963 10.8722222222222  13.5203703703704 10.9388888888889  C 13.3703703703704 11.05  13.2740740740741 11.2185185185185  13.2574074074074 11.4055555555556  C 13.1888888888889 12.1574074074074  12.8518518518518 13.912962962963  11.1944444444444 13.9481481481481  L 11.1555555555556 13.9481481481481  C 10.8851851851852 13.9481481481481  10.6388888888889 13.8851851851852  10.3537037037037 13.812962962963  C 10.15 13.7611111111111  9.91851851851852 13.7018518518519  9.66296296296296 13.6648148148148  C 9.63148148148148 13.6592592592593  9.6 13.6574074074074  9.56851851851852 13.6574074074074  C 9.47777777777778 13.6574074074074  9.38888888888889 13.6759259259259  9.30555555555555 13.712962962963  C 8.97777777777777 13.8574074074074  8.71666666666667 14.0444444444444  8.48888888888889 14.2092592592593  C 8.25185185185185 14.3796296296296  8.04814814814815 14.5259259259259  7.81481481481481 14.5962962962963  C 7.62037037037037 14.6555555555556  7.43148148148148 14.6851851851852  7.25555555555555 14.6851851851852  C 6.31296296296296 14.6851851851852  5.65925925925926 13.8  5.12222222222222 12.9703703703704  C 5.01481481481481 12.8037037037037  4.83518518518518 12.6944444444444  4.63703703703704 12.6777777777778  C 3.86296296296296 12.6074074074074  2.06111111111111 12.262962962963  2.05740740740741 10.5907407407407  C 2.05740740740741 10.3296296296296  2.11851851851852 10.0907407407407  2.19074074074074 9.81666666666667  C 2.24444444444444 9.61111111111111  2.3037037037037 9.37962962962963  2.34259259259259 9.11851851851852  C 2.35925925925926 9.00185185185185  2.34444444444444 8.88148148148148  2.29814814814815 8.77407407407407  C 2.17592592592592 8.48518518518518  1.99629629629629 8.22962962962963  1.82222222222222 7.98148148148148  C 1.64629629629629 7.72777777777778  1.47777777777778 7.48888888888889  1.40925925925926 7.26666666666667  C 1.0537037037037 6.13333333333333  1.80185185185185 5.37407407407407  3.03518518518518 4.58148148148148  C 3.20925925925926 4.47037037037037  3.31851851851852 4.28333333333333  3.33148148148148 4.07777777777778  C 3.41296296296296 2.83703703703704  4.03148148148148 1.51111111111111  5.52592592592592 1.51111111111111  C 5.71666666666666 1.51111111111111  5.91851851851852 1.53148148148148  6.12592592592592 1.57407407407407  C 6.15925925925926 1.58148148148148  6.23518518518518 1.60740740740741  6.29629629629629 1.62962962962963  C 6.47592592592592 1.69259259259259  6.69814814814815 1.77222222222222  6.94259259259259 1.77222222222222  C 6.97592592592592 1.77222222222222  7.0074074074074 1.77037037037037  7.03703703703703 1.76851851851852  C 7.43703703703703 1.73333333333333  7.81111111111111 1.47407407407407  8.2074074074074 1.19814814814815  C 8.38888888888888 1.07222222222222  8.63518518518518 0.9  8.74259259259259 0.866666666666666  C 8.93888888888888 0.805555555555555  9.12962962962963 0.774074074074074  9.3074074074074 0.774074074074074  C 10.2222222222222 0.774074074074074  10.8537037037037 1.57777777777778  11.4740740740741 2.47407407407407  C 11.5851851851852 2.63518518518518  11.7611111111111 2.73703703703704  11.9555555555556 2.75185185185185  C 13.1833333333333 2.85  14.5037037037037 3.45185185185185  14.5277777777778 4.84814814814815  C 14.5314814814815 5.12962962962963  14.4666666666667 5.39444444444444  14.3888888888889 5.7  C 14.3351851851852 5.91296296296296  14.2796296296296 6.13333333333333  14.2425925925926 6.38148148148148  C 14.2240740740741 6.50555555555555  14.2425925925926 6.63148148148148  14.2944444444444 6.7462962962963  C 14.4296296296296 7.04444444444444  14.5944444444444 7.29629629629629  14.7407407407407 7.52037037037037  C 15.0111111111111 7.93518518518519  15.2055555555556 8.23333333333333  15.2203703703704 8.71851851851852  Z M 12.1296296296296 10.1481481481481  C 12.1314814814815 9.28148148148148  11.4240740740741 8.57407407407407  10.5555555555556 8.57407407407407  C 9.68703703703704 8.57407407407407  8.97962962962963 9.27962962962963  8.97962962962963 10.1481481481481  C 8.97962962962963 11.0166666666667  9.68518518518519 11.7222222222222  10.5555555555556 11.7222222222222  C 11.4240740740741 11.7222222222222  12.1296296296296 11.0148148148148  12.1296296296296 10.1481481481481  Z M 11.4351851851852 10.15  C 11.4351851851852 10.6351851851852  11.0407407407407 11.0296296296296  10.5555555555556 11.0296296296296  C 10.0703703703704 11.0296296296296  9.67592592592593 10.6351851851852  9.67592592592593 10.15  C 9.67592592592593 9.66481481481481  10.0703703703704 9.27037037037037  10.5555555555556 9.27037037037037  C 11.0407407407407 9.27037037037037  11.4351851851852 9.66481481481481  11.4351851851852 10.15  Z M 4.76296296296296 5.53703703703704  C 4.76296296296296 6.40555555555556  5.47037037037037 7.11111111111111  6.33888888888889 7.11111111111111  C 7.20740740740741 7.11111111111111  7.91296296296296 6.40555555555556  7.91296296296296 5.53703703703704  C 7.91296296296296 4.66851851851852  7.20740740740741 3.96296296296296  6.33888888888889 3.96296296296296  C 5.47037037037037 3.96296296296296  4.76296296296296 4.66851851851852  4.76296296296296 5.53703703703704  Z M 5.45925925925926 5.53703703703704  C 5.45925925925926 5.05185185185185  5.8537037037037 4.65740740740741  6.33888888888889 4.65740740740741  C 6.82407407407407 4.65740740740741  7.21851851851852 5.05185185185185  7.21851851851852 5.53703703703704  C 7.21851851851852 6.02222222222222  6.82407407407407 6.41666666666667  6.33888888888889 6.41666666666667  C 5.8537037037037 6.41666666666667  5.45925925925926 6.02222222222222  5.45925925925926 5.53703703703704  Z M 11.5055555555556 5.18888888888889  C 11.6407407407407 5.0537037037037  11.6407407407407 4.83333333333333  11.5055555555556 4.69814814814815  C 11.3703703703704 4.56296296296296  11.15 4.56296296296296  11.0148148148148 4.69814814814815  L 5.2962962962963 10.4148148148148  C 5.16111111111111 10.55  5.16111111111111 10.7703703703704  5.2962962962963 10.9055555555556  C 5.36481481481481 10.9740740740741  5.4537037037037 11.0074074074074  5.54259259259259 11.0074074074074  C 5.63148148148148 11.0074074074074  5.72037037037037 10.9740740740741  5.78888888888889 10.9055555555556  L 11.5055555555556 5.18888888888889  Z " fill-rule="nonzero" fill="#333333" stroke="none" transform="matrix(1 0 0 1 105 243 )" />
  </g>
</svg>