<?xml version="1.0" encoding="utf-8"?>
<svg version="1.1" xmlns:xlink="http://www.w3.org/1999/xlink" width="16px" height="16px" xmlns="http://www.w3.org/2000/svg">
  <g transform="matrix(1 0 0 1 -1822 -8 )">
    <path d="M 15.8627193571429 15.8624269821429  C 16.0150275178571 15.7097350892857  16.0150275178571 15.4621315357143  15.8627010892857 15.309439625  L 8.55165341071429 7.980703375  L 15.8241809107143 0.690560375  C 15.9765073392857 0.537850196428571  15.9765073392857 0.290264910714286  15.8241809107143 0.137573017857143  C 15.6718179285714 -0.0151371607142857  15.4248904821429 -0.0151371607142857  15.2725275 0.137573017857143  L 7.99998171428571 7.42771601785714  L 0.727454214285714 0.137573017857143  C 0.575127785714286 -0.0151371607142857  0.32812725 -0.0151371607142857  0.175800803571429 0.137573017857143  C 0.023492642857143 0.290283196428571  0.023492642857143 0.537868482142857  0.175800803571429 0.690560375  L 7.44834658928571 7.980703375  L 0.137280642857143 15.309439625  C -0.015027517857143 15.4621498035714  -0.015027517857143 15.7097350892857  0.137280642857143 15.8624269821429  C 0.213443857142857 15.9387546607143  0.313289303571428 15.9769459107143  0.413116482142857 15.9769459107143  C 0.512943660714286 15.9769459107143  0.612789107142857 15.9387546607143  0.688952321428572 15.8624269821429  L 8 8.53369071428572  L 15.3110476785714 15.8624269821429  C 15.3872291785714 15.9387546607143  15.4870380714286 15.9769459107143  15.5868835178571 15.9769459107143  C 15.6867289642857 15.9769459107143  15.7865195892857 15.9387546607143  15.8627193571429 15.8624269821429  Z " fill-rule="nonzero" fill="#000000" stroke="none" fill-opacity="0.866666666666667" transform="matrix(1 0 0 1 1822 8 )" />
  </g>
</svg>