<?xml version="1.0" encoding="utf-8"?>
<svg version="1.1" xmlns:xlink="http://www.w3.org/1999/xlink" width="16px" height="16px" xmlns="http://www.w3.org/2000/svg">
  <g transform="matrix(1 0 0 1 -324 -17 )">
    <path d="M 13.9671437931035 15.448275862069  C 14.301376775862 15.5312794482759  14.5743348793103 15.259062362069  14.3448275862069 14.9248293793103  L 14.3448275862069 7.6845145862069  C 15.244318137931 7.30223915517241  15.7033591896552 6.588042  15.7033591896552 5.7629749137931  C 15.7033591896552 4.95108731034483  15.2676248275862 4.46916301724138  14.5743525172414 4.07914220689655  L 14.5743525172414 0.966897551724138  C 14.5743525172414 0.631905913793103  14.3013944137931 0.359706465517242  13.9671614310345 0.551724137931034  L 1.79205836206893 0.551724137931034  C 1.45782537931029 0.359706465517242  1.18562593103443 0.631905913793103  1.18562593103443 0.966897551724138  L 1.18562593103443 4.10507772413793  C 0.655235741379298 4.52539193103448  0.332647293103444 5.07748325862069  0.332647293103444 5.7629749137931  C 0.332647293103444 6.46866803448276  0.669967827586239 7.09209087931035  1.18562593103443 7.49843165517241  L 1.18562593103443 14.9248293793103  C 1.18562593103443 15.2590270689655  1.45782537931029 15.5312794482759  1.79205836206893 15.448275862069  L 13.9671437931035 15.448275862069  Z M 13.8590085517242 4.06324567241379  C 13.8528510689656 4.22379887931034  13.9443487586207 4.3788474137931  14.1025201379311 4.4432275  C 14.6406556896551 4.66187981034483  14.988032862069 5.18140177586207  14.988032862069 5.76299256896552  C 14.9880505172414 6.54770962068966  14.2703952931035 7.26698801724138  13.4841079827587 7.26698801724138  C 12.699355637931 7.26698801724138  12.0210094827586 6.54769198275862  12.0210094827586 5.7629749137931  C 12.0210094827586 5.54352867241379  11.8820162758621 5.36596739655172  11.6633286724138 5.36596739655172  C 11.4431590517241 5.36596739655172  11.3056831551724 5.54354631034483  11.3056831551724 5.7629749137931  C 11.3056831551724 6.54770962068966  10.6257843965517 7.26698801724138  9.84106734482753 7.26698801724138  C 9.05479767241383 7.26698801724138  8.37643387931028 6.54769198275862  8.37643387931028 5.7629749137931  C 8.37643387931028 5.54352867241379  8.23742301724144 5.36596739655172  8.01878836206893 5.36596739655172  C 7.79858344827592 5.36596739655172  7.66114284482758 5.54354631034483  7.66114284482758 5.7629749137931  C 7.66114284482758 6.54770962068966  6.9820203965517 7.26698801724138  6.19571543103453 7.26698801724138  C 5.41020441379316 7.26698801724138  4.73109962068965 6.54769198275862  4.73109962068965 5.7629749137931  C 4.73109962068965 5.54352867241379  4.59367665517242 5.36596739655172  4.3734541034483 5.36596739655172  C 4.154007862069 5.36596739655172  4.01580858620695 5.54354631034483  4.01580858620695 5.7629749137931  C 4.01580858620695 6.54770962068966  3.3374447931034 7.26698801724138  2.55117512068971 7.26698801724138  C 1.76566410344822 7.26698801724138  1.04799124137935 6.54769198275862  1.04799124137935 5.7629749137931  C 1.04799124137935 5.27212315517242  1.21738370689654 4.82084512068966  1.6322285 4.55713206896552  C 1.75089672413792 4.48193670689655  1.90095224137935 4.35322948275862  1.90095224137935 4.2221580862069  L 1.90095225862074 1.10344827586207  L 13.8590085517242 1.10344827586207  L 13.8590085517242 4.06324567241379  Z M 13.7931034482759 14.8159354827586  L 2.20689655172414 14.8159354827586  L 2.20689655268206 7.94205723274063  C 2.26537914405143 7.96690441880675  2.41940781769266 7.98227905172414  2.55117513793109 7.98227905172414  C 3.30644568965513 7.98227905172414  3.97254744827585 7.60155622413793  4.37345412068969 7.02386458620689  C 4.7743607931034 7.60155622413793  5.44123884482755 7.98227905172414  6.1956978103448 7.98227905172414  C 6.95100363793106 7.98227905172414  7.61708775862067 7.60155622413793  8.01875308620684 7.02386458620689  C 8.41891874137933 7.60155622413793  9.08579681034487 7.98227905172414  9.84104970689654 7.98227905172414  C 10.5947676551724 7.98227905172414  11.261663362069 7.60155622413793  11.6617760862069 7.02386458620689  C 12.0634237758621 7.60155622413793  12.7287668793103 7.98227905172414  13.4840550689655 7.98227905172414  C 13.584850724138 7.98227905172414  13.7416282931034 7.96525336206897  13.7931034482759 7.95207387931034  L 13.7931034482759 14.8159354827586  Z M 2.80611951724144 3.27080089655172  L 12.9543000172414 3.27080089655172  L 12.9543000172414 2.55547456896552  L 2.80611951724144 2.55547456896552  L 2.80611951724144 3.27080089655172  Z " fill-rule="nonzero" fill="#000000" stroke="none" fill-opacity="0.866666666666667" transform="matrix(1 0 0 1 324 17 )" />
  </g>
</svg>