<?xml version="1.0" encoding="utf-8"?>
<svg version="1.1" xmlns:xlink="http://www.w3.org/1999/xlink" width="18px" height="18px" xmlns="http://www.w3.org/2000/svg">
  <g transform="matrix(1 0 0 1 -16 -111 )">
    <path d="M 17.9698660714286 15.7560267857143  C 17.9698660714286 13.8857142857143  17.4595982142857 12.1680803571429  16.4912946428571 10.8924107142857  C 15.9127232142857 10.1270089285714  15.1573660714286 9.52834821428572  14.2674107142857 9.17276785714286  C 14.5205357142857 8.98995535714286  14.7435267857143 8.76897321428571  14.9283482142857 8.51785714285714  C 15.5008928571429 7.75044642857143  15.7560267857143 6.74598214285714  15.7560267857143 5.67321428571429  C 15.7560267857143 4.14642857142857  14.9183035714286 2.81049107142857  13.6787946428571 2.10736607142857  C 13.4477678571429 1.97678571428571  13.1524553571429 2.05714285714286  13.021875 2.28816964285714  C 12.8912946428571 2.51919642857143  12.9716517857143 2.81450892857143  13.2026785714286 2.94508928571429  C 14.1508928571429 3.48549107142857  14.7917410714286 4.50200892857143  14.7917410714286 5.67120535714286  C 14.79375 6.59330357142857  14.5647321428571 7.396875  14.1569196428571 7.93727678571428  C 13.7430803571429 8.47566964285714  13.1805803571429 8.79508928571429  12.3147321428571 8.803125  C 12.0475446428571 8.803125  11.8325892857143 9.01808035714286  11.8325892857143 9.28526785714286  C 11.8325892857143 9.55245535714286  12.0475446428571 9.76741071428572  12.3147321428571 9.76741071428572  C 13.7752232142857 9.77142857142857  14.90625 10.40625  15.7238839285714 11.4729910714286  C 16.5375 12.5397321428571  17.0055803571429 14.0564732142857  17.0055803571429 15.7560267857143  C 17.0055803571429 16.0232142857143  17.2205357142857 16.2381696428571  17.4877232142857 16.2381696428571  C 17.7549107142857 16.2381696428571  17.9698660714286 16.0232142857143  17.9698660714286 15.7560267857143  Z M 12.8611607142857 11.5191964285714  C 11.9752232142857 10.5328125  10.8582589285714 9.78950892857143  9.60669642857143 9.39174107142857  C 11.2419642857143 8.61227678571429  12.3709821428571 6.94486607142857  12.3709821428571 5.01227678571429  C 12.3709821428571 2.334375  10.1993303571429 0.162723214285714  7.52142857142857 0.162723214285714  C 4.84352678571429 0.162723214285714  2.671875 2.334375  2.671875 5.01227678571429  C 2.671875 6.94486607142857  3.80290178571429 8.61227678571429  5.43616071428571 9.39174107142857  C 4.18459821428571 9.78950892857143  3.06763392857143 10.5328125  2.18370535714286 11.5171875  C 0.8296875 13.0238839285714  0 15.0910714285714  0 17.3691964285714  C 0 17.6363839285714  0.214955357142857 17.8513392857143  0.482142857142857 17.8513392857143  C 0.749330357142857 17.8513392857143  0.964285714285714 17.6363839285714  0.964285714285714 17.3691964285714  C 0.964285714285714 15.328125  1.70959821428571 13.4879464285714  2.90290178571429 12.1640625  C 4.09821428571429 10.8401785714286  5.72745535714286 10.0345982142857  7.5234375 10.0345982142857  C 9.32142857142857 10.0345982142857  10.9486607142857 10.8401785714286  12.1439732142857 12.1640625  C 13.3372767857143 13.4879464285714  14.0825892857143 15.328125  14.0825892857143 17.3691964285714  C 14.0825892857143 17.6363839285714  14.2975446428571 17.8513392857143  14.5647321428571 17.8513392857143  C 14.8319196428571 17.8513392857143  15.046875 17.6363839285714  15.046875 17.3691964285714  C 15.046875 15.0930803571429  14.2151785714286 13.0238839285714  12.8611607142857 11.5191964285714  Z M 7.5234375 8.89754464285714  C 5.37790178571429 8.89352678571429  3.6421875 7.1578125  3.63816964285714 5.01227678571429  C 3.6421875 2.86674107142857  5.37790178571429 1.13102678571429  7.5234375 1.12700892857143  C 9.66897321428571 1.13102678571429  11.4046875 2.86674107142857  11.4087053571429 5.01227678571429  C 11.4046875 7.1578125  9.66897321428571 8.89352678571429  7.5234375 8.89754464285714  Z " fill-rule="nonzero" fill="#ffffff" stroke="none" fill-opacity="0.866666666666667" transform="matrix(1 0 0 1 16 111 )" />
  </g>
</svg>