<?xml version="1.0" encoding="utf-8"?>
<svg version="1.1" xmlns:xlink="http://www.w3.org/1999/xlink" width="18px" height="18px" xmlns="http://www.w3.org/2000/svg">
  <g transform="matrix(1 0 0 1 -16 -153 )">
    <path d="M 0.728665207031249 4.3719912421875  C 0.728665207031249 4.3326039375  1.94967177539062 3.07221006445312  4.27352298046875 4.41137856445313  C 4.39168491210938 4.49015317382813  4.50984682617188 4.52954049609375  4.6280087578125 4.60831510546875  L 8.251641140625 4.60831510546875  C 8.09409190429687 4.52954049609375  8.01531729492187 4.41137856445313  8.01531729492187 4.3326039375  C 8.01531729492187 4.13566739648437  8.36980307226562 3.85995622851562  8.9606126953125 3.85995622851562  C 9.51203501367188 3.85995622851562  9.90590809570313 4.13566739648437  9.90590809570313 4.3326039375  C 9.90590809570313 4.411378546875  9.82713348632813 4.52954047851562  9.66958425 4.60831510546875  L 13.9234135605469 4.60831510546875  C 14.908096265625 3.93873085546875  15.2625820429688 2.48140044140625  14.7111597421875 1.33916848242188  C 14.3172866601563 0.512035013671875  13.5689277832031 0  12.7417943144531 0  C 12.3873085371094 0  12.0328227597656 0.118161931640625  11.7177242871094 0.27571116796875  C 11.2056892734375 0.590809640625  10.6148796503906 1.22100656835938  10.2210065683594 1.92997812304687  C 9.94529540039063 2.40262583203125  9.78774618164063 2.83588621875  9.748358859375 3.26914660546875  C 9.51203501367188 3.15098467382812  9.23632384570313 3.11159736914062  8.921225390625 3.11159736914062  C 8.60612693554688 3.11159736914062  8.33041576757812 3.19037197851562  8.09409190429687 3.26914660546875  C 7.97592997265625 2.79649889648437  7.70021882226562 2.2056892734375  7.22757111328125 1.53610504101562  C 6.47921225390625 0.472647708984375  5.25820568554687 0.0787746269531251  4.15536104882812 0.512035013671875  C 4.15536104882812 0.551422318359375  4.07658643945312 0.590809623046875  3.9978118125 0.6301969453125  C 3.48577679882812 0.94529541796875  3.17067832617187 1.53610504101562  3.05251641210937 2.2056892734375  C 3.05251641210937 2.32385120507813  3.01312910742187 2.40262581445312  3.01312910742187 2.52078774609375  C 3.01312910742187 2.71772428710937  3.17067834375 2.914660828125  3.36761488476562 2.914660828125  C 3.56455142578125 2.914660828125  3.72210066210937 2.75711159179687  3.72210066210937 2.52078774609375  L 3.72210066210937 2.36323850976563  C 3.80087527148437 1.89059080078125  4.03719913476562 1.49671771875  4.35229758984375 1.29978117773438  C 4.39168489453125 1.26039387304687  4.43107219921875 1.26039387304687  4.43107221679687 1.26039387304687  C 5.258205703125 0.905908095703125  6.20350110351562 1.22100656835937  6.754923421875 2.04814003710937  C 7.4638949765625 3.07221006445312  7.58205690820312 3.6630196875  7.50328228125 3.85995622851562  L 7.50328228125 3.89934355078125  C 7.4638949765625 3.97811816015625  7.424507671875 4.09628009179687  7.42450765429687 4.17505470117187  C 7.26695841796875 4.3326039375  6.59737416796875 4.88402625585937  4.6280087578125 3.74179431445312  C 1.83150984375 2.16630196875  0.334792125 3.74179431445312  0.256017498046874 3.82056892382812  C 0.137855566406249 3.97811816015625  0.0984682617187494 4.21444200585938  0.256017498046874 4.3719912421875  C 0.374179429687499 4.52954047851562  0.610503275390624 4.52954047851562  0.728665207031249 4.3719912421875  Z M 10.5361050410156 3.82056892382813  C 10.3785558046875 3.50547045117188  10.4967177363281 2.9540481328125  10.8512034960937 2.32385120507813  C 11.16630196875 1.73304158203125  11.6783369824219 1.18161926367187  12.0722100644531 0.945295400390625  C 12.3085339101563 0.82713346875  12.5448577734375 0.748358859375  12.7811816191406 0.748358859375  C 13.3326039375 0.748358859375  13.8840262558594 1.10284463671875  14.1203501015625 1.65426695507813  C 14.3172866425781 2.04814003710938  14.3566739472656 2.52078774609375  14.2385120332031 2.9540481328125  C 14.1203501015625 3.38730851953125  13.8446389511719 3.741794296875  13.4901531738281 3.97811816015625  C 13.0962800917969 4.21444200585938  12.4660831464844 4.3719912421875  11.914660828125 4.3719912421875  C 11.2056892734375 4.3719912421875  10.6936542597656 4.17505470117188  10.5361050410156 3.82056892382813  Z M 17.8621444160156 6.06564551953125  C 17.8621444160156 5.27789935546875  17.2319474707031 4.60831510546875  16.4442013066406 4.60831510546875  L 1.94967177539062 4.60831510546875  C 1.16192561132812 4.60831510546875  0.531728666015625 5.27789935546875  0.531728666015625 6.10503282421875  L 0.531728666015625 8.665207875  C 0.531728666015625 9.413566734375  1.0437636796875 10.0043763574219  1.7133479296875 10.1225382890625  L 1.7133479296875 15.5973741855469  C 1.7133479296875 16.9365426679688  2.77680526171875 18  4.11597374414063 18  L 14.2778993378906 18  C 15.6170678203125 18  16.6805251523438 16.8971553632813  16.6805251699219 15.5973741855469  L 16.6805251699219 10.083150984375  C 17.3501094199219 9.96498905273437  17.8621444335938 9.3741794296875  17.8621444160156 8.6258205703125  L 17.8621444160156 6.06564551953125  Z M 8.40919037695313 10.1225382890625  L 8.40919037695313 17.2122538359375  L 4.11597374414063 17.2122538359375  C 3.2100656484375 17.2122538359375  2.50109409375 16.4638949765625  2.50109409375 15.5973741855469  L 2.50109409375 10.1225382890625  L 8.40919037695313 10.1225382890625  Z M 8.40919037695313 5.35667396484375  L 8.40919037695313 9.334792125  L 1.94967177539062 9.334792125  C 1.59518599804687 9.334792125  1.31947483007812 9.01969365234375  1.31947483007812 8.6258205703125  L 1.31947483007812 6.06564551953125  C 1.31947483007812 5.6717724375  1.59518599804687 5.35667396484375  1.94967177539062 5.35667396484375  L 8.40919037695313 5.35667396484375  Z M 15.8927789882812 10.1225382890625  L 15.8927789882813 15.5973741855469  C 15.8927789882813 16.50328228125  15.1838074335938 17.2122538359375  14.2778993378906 17.2122538359375  L 9.19693654101562 17.2122538359375  L 9.19693654101562 10.1225382890625  L 15.8927789882812 10.1225382890625  Z M 17.0743982519531 6.10503282421875  L 17.0743982519531 8.6258205703125  C 17.0743982519531 9.01969365234375  16.7986870839844 9.334792125  16.4442013066406 9.334792125  L 9.19693654101562 9.334792125  L 9.19693654101562 5.39606126953125  L 16.4442013066406 5.39606126953125  C 16.7986870839844 5.39606126953125  17.0743982519531 5.7111597421875  17.0743982519531 6.10503282421875  Z " fill-rule="nonzero" fill="#ffffff" stroke="none" fill-opacity="0.866666666666667" transform="matrix(1 0 0 1 16 153 )" />
  </g>
</svg>