<?xml version="1.0" encoding="utf-8"?>
<svg version="1.1" xmlns:xlink="http://www.w3.org/1999/xlink" width="416px" height="234px" xmlns="http://www.w3.org/2000/svg">
  <defs>
    <filter x="1144px" y="96px" width="416px" height="234px" filterUnits="userSpaceOnUse" id="filter619">
      <feOffset dx="0" dy="5" in="SourceAlpha" result="shadowOffsetInner" />
      <feGaussianBlur stdDeviation="8" in="shadowOffsetInner" result="shadowGaussian" />
      <feComposite in2="shadowGaussian" operator="atop" in="SourceAlpha" result="shadowComposite" />
      <feColorMatrix type="matrix" values="0 0 0 0 0  0 0 0 0 0  0 0 0 0 0  0 0 0 0.23921568627451 0  " in="shadowComposite" />
    </filter>
    <g id="widget620">
      <path d="M 1161 109  A 1 1 0 0 1 1162 108 L 1542 108  A 1 1 0 0 1 1543 109 L 1543 307  A 1 1 0 0 1 1542 308 L 1162 308  A 1 1 0 0 1 1161 307 L 1161 109  Z " fill-rule="nonzero" fill="#ffffff" stroke="none" />
      <path d="M 1160.5 109  A 1.5 1.5 0 0 1 1162 107.5 L 1542 107.5  A 1.5 1.5 0 0 1 1543.5 109 L 1543.5 307  A 1.5 1.5 0 0 1 1542 308.5 L 1162 308.5  A 1.5 1.5 0 0 1 1160.5 307 L 1160.5 109  Z " stroke-width="1" stroke="#dadce0" fill="none" stroke-opacity="0.996078431372549" />
    </g>
  </defs>
  <g transform="matrix(1 0 0 1 -1144 -96 )">
    <use xlink:href="#widget620" filter="url(#filter619)" />
    <use xlink:href="#widget620" />
  </g>
</svg>