<?xml version="1.0" encoding="utf-8"?>
<svg version="1.1" xmlns:xlink="http://www.w3.org/1999/xlink" width="14px" height="16px" xmlns="http://www.w3.org/2000/svg">
  <g transform="matrix(1 0 0 1 -66 -62 )">
    <path d="M 8.0390625 8.55892857142857  C 10.4453125 8.55892857142857  12.403125 6.64107142857143  12.403125 4.28214285714286  C 12.403125 1.92321428571429  10.4453125 0.00535714285714306  8.03723958333333 0.00535714285714306  C 5.62916666666667 0.00535714285714306  3.67135416666667 1.92321428571429  3.67135416666667 4.28214285714286  C 3.67135416666667 5.01964285714286  3.86640625 5.74642857142857  4.23463541666667 6.38392857142857  C 4.32760416666667 6.54464285714286  4.53541666666667 6.60178571428571  4.70130208333333 6.51071428571429  C 4.86536458333333 6.41964285714286  4.92369791666667 6.21607142857143  4.83072916666667 6.05357142857143  C 4.52083333333333 5.51607142857143  4.35677083333333 4.90357142857143  4.35677083333333 4.28214285714286  C 4.35677083333333 2.29285714285714  6.00833333333333 0.675  8.0390625 0.675  C 10.0697916666667 0.675  11.7213541666667 2.29285714285714  11.7213541666667 4.28214285714286  C 11.7213541666667 6.27142857142857  10.0697916666667 7.88928571428571  8.0390625 7.88928571428571  C 3.6640625 7.88928571428571  0.10390625 11.375  0.10390625 15.6607142857143  C 0.10390625 15.8464285714286  0.25703125 15.9964285714286  0.446614583333333 15.9964285714286  C 0.636197916666667 15.9964285714286  0.789322916666667 15.8464285714286  0.789322916666667 15.6607142857143  C 0.789322916666667 11.7446428571429  4.04140625 8.55892857142857  8.0390625 8.55892857142857  Z M 7.4484375 11.0339285714286  C 7.25885416666667 11.0339285714286  7.10572916666667 11.1839285714286  7.10572916666667 11.3696428571429  C 7.10572916666667 11.5553571428571  7.25885416666667 11.7053571428571  7.4484375 11.7053571428571  L 13.5533854166667 11.7053571428571  C 13.74296875 11.7053571428571  13.89609375 11.5553571428571  13.89609375 11.3696428571429  C 13.89609375 11.1839285714286  13.74296875 11.0339285714286  13.5533854166667 11.0339285714286  L 7.4484375 11.0339285714286  Z M 13.89609375 13.5160714285714  C 13.89609375 13.3303571428571  13.74296875 13.1803571428571  13.5533854166667 13.1803571428571  L 7.4484375 13.1803571428571  C 7.25885416666667 13.1803571428571  7.10572916666667 13.3303571428571  7.10572916666667 13.5160714285714  C 7.10572916666667 13.7017857142857  7.25885416666667 13.8517857142857  7.4484375 13.8517857142857  L 13.5533854166667 13.8517857142857  C 13.74296875 13.8517857142857  13.89609375 13.7017857142857  13.89609375 13.5160714285714  Z M 13.89609375 15.6607142857143  C 13.89609375 15.475  13.74296875 15.325  13.5533854166667 15.325  L 7.4484375 15.325  C 7.25885416666667 15.325  7.10572916666667 15.475  7.10572916666667 15.6607142857143  C 7.10572916666667 15.8464285714286  7.25885416666667 15.9964285714286  7.4484375 15.9964285714286  L 13.5533854166667 15.9964285714286  C 13.74296875 15.9964285714286  13.89609375 15.8464285714286  13.89609375 15.6607142857143  Z " fill-rule="nonzero" fill="#333333" stroke="none" transform="matrix(1 0 0 1 66 62 )" />
  </g>
</svg>