<?xml version="1.0" encoding="utf-8"?>
<svg version="1.1" xmlns:xlink="http://www.w3.org/1999/xlink" width="20px" height="14px" xmlns="http://www.w3.org/2000/svg">
  <g transform="matrix(1 0 0 1 -63 -103 )">
    <path d="M 17.375 13.3636363636364  C 17.375 11.2  16.25 9.16363636363636  14.375 8.01818181818182  L 13.875 8.90909090909091  C 15.5 9.8  16.375 11.5818181818182  16.375 13.3636363636364  L 17.375 13.3636363636364  Z M 14.125 4.07272727272727  C 14.125 1.78181818181818  12.125 0  9.875 0  C 7.625 0  5.875 1.90909090909091  5.875 4.2  C 5.875 5.72727272727273  6.625 7  7.75 7.76363636363636  C 5.5 8.52727272727273  3.75 10.8181818181818  3.75 13.4909090909091  L 4.75 13.4909090909091  C 4.75 10.6909090909091  7.125 8.27272727272727  10 8.27272727272727  C 12.25 8.27272727272727  14.125 6.36363636363636  14.125 4.07272727272727  Z M 12.875 4.2  C 13 5.85454545454545  11.625 7.25454545454545  9.875 7.25454545454545  C 8.25 7.25454545454545  6.875 5.85454545454545  6.875 4.2  C 6.875 2.54545454545455  8.25 1.14545454545455  9.875 1.14545454545455  C 11.5 1.14545454545455  12.875 2.54545454545455  12.875 4.2  Z M 13.875 8.01818181818182  C 15.75 8.01818181818182  17.25 6.49090909090909  17.25 4.70909090909091  C 17.25 2.92727272727273  15.875 1.4  14 1.4  C 14.125 1.65454545454545  14.375 2.03636363636364  14.5 2.29090909090909  C 15.625 2.54545454545455  16.375 3.56363636363636  16.375 4.70909090909091  C 16.375 6.10909090909091  15.25 7.25454545454545  13.875 7.25454545454545  C 13.625 7.63636363636364  13.375 7.89090909090909  13.125 8.14545454545454  C 13.375 8.14545454545454  13.625 8.01818181818182  13.875 8.01818181818182  Z M 20 12.0909090909091  C 20 10.3090909090909  19.125 8.65454545454546  17.625 7.76363636363636  L 17.25 8.52727272727273  C 18.5 9.29090909090909  19.25 10.6909090909091  19.25 12.0909090909091  L 20 12.0909090909091  Z M 2.375 7.76363636363636  C 0.875 8.65454545454546  0 10.3090909090909  0 12.0909090909091  L 0.875 12.0909090909091  C 0.875 10.5636363636364  1.625 9.16363636363636  2.875 8.52727272727273  L 2.375 7.76363636363636  Z M 5.875 7.89090909090909  C 6.25 8.01818181818182  6.5 8.01818181818182  6.75 8.01818181818182  C 6.5 7.76363636363636  6.25 7.50909090909091  6 7.12727272727273  C 4.625 7.12727272727273  3.5 5.98181818181818  3.5 4.58181818181818  C 3.5 3.43636363636364  4.375 2.41818181818182  5.375 2.16363636363636  C 5.625 1.90909090909091  5.75 1.65454545454545  5.875 1.27272727272727  C 4.125 1.27272727272727  2.625 2.8  2.625 4.58181818181818  C 2.625 6.36363636363636  4.125 7.89090909090909  5.875 7.89090909090909  Z " fill-rule="nonzero" fill="#333333" stroke="none" transform="matrix(1 0 0 1 63 103 )" />
  </g>
</svg>