<?xml version="1.0" encoding="utf-8"?>
<svg version="1.1" xmlns:xlink="http://www.w3.org/1999/xlink" width="14px" height="14px" xmlns="http://www.w3.org/2000/svg">
  <g transform="matrix(1 0 0 1 -66 -216 )">
    <path d="M 6.45449218749998 14  L 14 6.4517578125  L 14 0  L 7.54960937500001 0  L 0.00273437500000995 7.546875  L 6.45449218749998 14  Z M 0.63847656250001 7.546875  L 7.73554687499999 0.4375  L 13.5625 0.4375  L 13.5625 6.2671875  L 6.45449218749998 13.365625  L 0.63847656250001 7.546875  Z M 12.1419921875 2.8095703125  C 12.1419921875 2.1916015625  11.6388671875 1.6884765625  11.0208984375 1.6884765625  C 10.4029296875 1.6884765625  9.89980468749998 2.1916015625  9.89980468749998 2.8095703125  C 9.89980468749998 3.4275390625  10.4015625 3.9306640625  11.0208984375 3.9306640625  C 11.6388671875 3.9306640625  12.1419921875 3.4275390625  12.1419921875 2.8095703125  Z M 6.49687500000001 11.530859375  C 6.69785156250002 11.530859375  6.86191406250002 11.3681640625  6.86191406250002 11.1658203125  C 6.86191406250002 10.96484375  6.69921875 10.80078125  6.49687500000001 10.80078125  C 6.29453125000002 10.80078125  6.1318359375 10.9634765625  6.1318359375 11.1658203125  C 6.1318359375 11.366796875  6.29453125000002 11.530859375  6.49687500000001 11.530859375  Z M 5.47695312499998 10.759765625  L 5.84062500000001 10.4439453125  L 3.53554687499998 7.801171875  L 3.17324218749998 8.1169921875  L 5.47695312499998 10.759765625  Z M 11.6935546875 2.808203125  C 11.6935546875 3.1787109375  11.39140625 3.480859375  11.0208984375 3.480859375  C 10.6490234375 3.480859375  10.3482421875 3.1787109375  10.3482421875 2.808203125  C 10.3482421875 2.4376953125  10.650390625 2.135546875  11.0208984375 2.135546875  C 11.3927734375 2.135546875  11.6935546875 2.4376953125  11.6935546875 2.808203125  Z " fill-rule="nonzero" fill="#000000" stroke="none" fill-opacity="0.996078431372549" transform="matrix(1 0 0 1 66 216 )" />
  </g>
</svg>