<?xml version="1.0" encoding="utf-8"?>
<svg version="1.1" xmlns:xlink="http://www.w3.org/1999/xlink" width="468px" height="253px" xmlns="http://www.w3.org/2000/svg">
  <g transform="matrix(1 0 0 1 -78 -88 )">
    <path d="M 79 90  A 1 1 0 0 1 80 89 L 544 89  A 1 1 0 0 1 545 90 L 545 339  A 1 1 0 0 1 544 340 L 80 340  A 1 1 0 0 1 79 339 L 79 90  Z " fill-rule="nonzero" fill="#ffffff" stroke="none" />
    <path d="M 78.5 90  A 1.5 1.5 0 0 1 80 88.5 L 544 88.5  A 1.5 1.5 0 0 1 545.5 90 L 545.5 339  A 1.5 1.5 0 0 1 544 340.5 L 80 340.5  A 1.5 1.5 0 0 1 78.5 339 L 78.5 90  Z " stroke-width="1" stroke="#0078d7" fill="none" stroke-opacity="0.866666666666667" />
  </g>
</svg>