<?xml version="1.0" encoding="utf-8"?>
<svg version="1.1" xmlns:xlink="http://www.w3.org/1999/xlink" width="72px" height="40px" xmlns="http://www.w3.org/2000/svg">
  <g transform="matrix(1 0 0 1 -110 -321 )">
    <path d="M 111 323  A 1 1 0 0 1 112 322 L 180 322  A 1 1 0 0 1 181 323 L 181 359  A 1 1 0 0 1 180 360 L 112 360  A 1 1 0 0 1 111 359 L 111 323  Z " fill-rule="nonzero" fill="#cecece" stroke="none" />
    <path d="M 110.5 323  A 1.5 1.5 0 0 1 112 321.5 L 180 321.5  A 1.5 1.5 0 0 1 181.5 323 L 181.5 359  A 1.5 1.5 0 0 1 180 360.5 L 112 360.5  A 1.5 1.5 0 0 1 110.5 359 L 110.5 323  Z " stroke-width="1" stroke="#dadce0" fill="none" stroke-opacity="0.996078431372549" />
  </g>
</svg>