<?xml version="1.0" encoding="utf-8"?>
<svg version="1.1" xmlns:xlink="http://www.w3.org/1999/xlink" width="158px" height="24px" viewBox="56 0  158 24" xmlns="http://www.w3.org/2000/svg">
  <path d="M 57 2  A 1 1 0 0 1 58 1 L 212 1  A 1 1 0 0 1 213 2 L 213 22  A 1 1 0 0 1 212 23 L 58 23  A 1 1 0 0 1 57 22 L 57 2  Z " fill-rule="nonzero" fill="#ffffff" stroke="none" fill-opacity="0.996078431372549" />
  <path d="M 56.5 2  A 1.5 1.5 0 0 1 58 0.5 L 212 0.5  A 1.5 1.5 0 0 1 213.5 2 L 213.5 22  A 1.5 1.5 0 0 1 212 23.5 L 58 23.5  A 1.5 1.5 0 0 1 56.5 22 L 56.5 2  Z " stroke-width="1" stroke="#dadce0" fill="none" stroke-opacity="0.996078431372549" />
</svg>