<?xml version="1.0" encoding="utf-8"?>
<svg version="1.1" xmlns:xlink="http://www.w3.org/1999/xlink" width="20px" height="20px" xmlns="http://www.w3.org/2000/svg">
  <g transform="matrix(1 0 0 1 -1787 -15 )">
    <path d="M 13.5979259166667 3.27199999999999  C 13.1519492358766 3.03210629623597  12.6830341186304 2.83755217788375  12.1982222291667 2.69125924999999  L 12.05925925 1.37096295833333  C 12.0029629583334 0.836148145833325  11.4986666666667 0.417185187499996  10.9111111041667 0.417185187499996  L 9.07199999999996 0.417185187499996  C 8.48444443750001 0.417185187499996  7.98014814583333 0.836148145833334  7.92385185416667 1.37096295833334  L 7.78488889583332 2.6915555625  C 7.30019202781053 2.83790458722459  6.83138070169101 3.03245681563907  6.38548147916663 3.27229629166666  L 5.35229629166664 2.43614814583333  C 5.17107487031232 2.29119508048873  4.94523002155514 2.21350528847988  4.71318518749998 2.21629629166667  C 4.40177777083333 2.21629629166667  4.0933333333334 2.34666666666666  3.86607408333339 2.573629625  L 2.56562962500008 3.87407408333333  C 2.15022220833331 4.2894815  2.08977777083328 4.94251852083334  2.42814814583335 5.36059258333334  L 3.26429629166675 6.39348147916667  C 3.02445681563904 6.83938070169096  2.82990458722452 7.30819202781053  2.68355556249996 7.79288889583334  L 1.36266666666673 7.93185185416667  C 0.827851854166662 7.98814814583333  0.408888895833267 8.49274075  0.408888895833267 9.08  L 0.408888895833267 10.9191111041667  C 0.408888895833267 11.5066666666667  0.827851854166662 12.01125925  1.36266666666673 12.0675555625  L 2.68325924999999 12.2065185208333  C 2.82960828270385 12.6912153824977  3.02416051808314 13.1600267016029  3.26399999999997 13.6059259166667  L 2.42785185416672 14.6391111041667  C 2.08948147916666 15.0571851875  2.14992593750003 15.7099259166667  2.5653333333333 16.1253333333333  L 3.86577777083327 17.4257777708333  C 4.09012168178 17.6517248725126  4.39449711489427 17.7801182850056  4.71288889583335 17.7831111041667  C 4.95318518750006 17.7831111041667  5.17422222916669 17.7069629583333  5.35229629166664 17.56325925  L 6.3851851875 16.7271111041667  C 6.8310844025638 16.9669505860836  7.29989572166899 17.1615028214629  7.78459258333335 17.3078518541667  L 7.92385185416667 18.6284444375  C 7.98014814583333 19.16325925  8.48444443750001 19.5822222083333  9.07199999999996 19.5822222291667  L 10.9111111041667 19.5822222291667  C 11.4986666666667 19.5822222291667  12.0029629583334 19.1632592708333  12.0595555625 18.6284444375  L 12.1985185208334 17.3078518541667  C 12.6833109711602 17.1615045088844  13.1522207510826 16.9669526078976  13.5982222291667 16.7271111041667  L 14.6311111041667 17.5629629583333  C 14.808888875 17.7069629583333  15.0299259166666 17.7831111041667  15.2708148124999 17.7831111041667  C 15.5819259166666 17.7831111041667  15.8906666666667 17.6527407291667  16.1176296250001 17.4257777708333  L 17.4180740833334 16.1250370416667  C 17.8334815 15.709629625  17.8939259375 15.0568888958333  17.5555555625 14.6388148125  L 16.7194074166667 13.6059259166667  C 16.9592468914141 13.1600267007919  17.1537991198038 12.6912153817114  17.3001481458333 12.2065185208333  L 18.6204444375 12.06725925  C 19.1555555416667 12.0109629583333  19.5745185208334 11.5066666666667  19.5745185208334 10.9191111041667  L 19.5745185208334 9.07999999999999  C 19.5745185208334 8.49244443749999  19.1555555625 7.98814814583333  18.6207407499999 7.93185185416667  L 17.3001481458333 7.79288889583333  C 17.1537483839987 7.3081151828057  16.9591986237409 6.8392105456555  16.7194074166667 6.3931851875  L 17.5555555625 5.36029629166666  C 17.8939259375 4.94222220833332  17.8334814791666 4.28948147916666  17.4180740833334 3.87407408333333  L 16.1173333333333 2.57333333333332  C 15.8929894275025 2.34738623670233  15.5886140028671 2.21899282462836  15.2702222291667 2.216  C 15.0296296458334 2.216  14.8085926041667 2.29214814583333  14.6308148125001 2.43585185416667  L 13.5979259166667 3.27199999999999  Z M 8.51318518750001 1.43348147916667  C 8.5377777708333 1.2  8.78844443749995 1.0100740625  9.07229629166674 1.01007408333334  L 10.9111111041667 1.01007408333334  C 11.1946666666668 1.01007408333334  11.4453333333333 1.1997036875  11.4699259166667 1.4331851875  L 11.6088888958334 2.75377777083333  L 11.6500740833333 3.1451851875  L 12.0269629583333 3.25896295833333  C 12.4738573302343 3.39397551324571  12.9061312163253 3.57333691918654  13.3173333333334 3.794370375  L 13.6642962916667 3.98074075  L 13.9706666666666 3.73274075  L 15.0035555625 2.89688889583333  C 15.0755555624999 2.83851852083333  15.1653333333334 2.80888889583333  15.2699259166667 2.80888889583333  C 15.4228148125 2.80888889583333  15.5828148125 2.87762964583334  15.6980740833333 2.99259258333333  L 16.9988148125 4.29303704166667  C 17.1994073958334 4.493629625  17.2420740624999 4.80503704166667  17.0945185208334 4.9875555625  L 16.258370375 6.0204444375  L 16.0103703749999 6.3268148125  L 16.19674075 6.67377777083333  C 16.4177741986444 7.08497988865069  16.5971355975959 7.51725377471688  16.7321481458333 7.96414814583333  L 16.8459259166666 8.34103704166667  L 17.237629625 8.38222222916666  L 18.5582222291667 8.5211851875  C 18.7917037083333 8.54577777083333  18.9816296458333 8.79644443750001  18.9816296249999 9.08  L 18.9816296249999 10.9191111041667  C 18.9816296249999 11.2026666666667  18.7917037083333 11.4533333333333  18.5582222291667 11.4779259166667  L 17.2379259166667 11.6171851875  L 16.8465185208333 11.658370375  L 16.73274075 12.03525925  C 16.5977281950876 12.482153621901  16.4183667891468 12.9144275079919  16.1973333333334 13.325629625  L 16.0106666666667 13.6725925833333  L 16.2586666666666 13.9789629583333  L 17.0948148125 15.0118518541667  C 17.2423703750001 15.194370375  17.1994073958334 15.5057777708333  16.9988148125 15.706370375  L 15.698370375 17.0071111041667  C 15.5834074166667 17.1220740625  15.4234074166667 17.1908148125  15.2705185208333 17.1908148125  C 15.165629625 17.1908148125  15.0761481458333 17.1611851875  15.0038518541667 17.1028148125  L 13.9709629583334 16.2669629583333  L 13.6645925833333 16.0189629583333  L 13.317629625 16.2053333333333  C 12.906358883565 16.426222215503  12.4740997345925 16.6055775066394  12.02725925 16.74074075  L 11.650370375 16.8545185208333  L 11.6091851875 17.2462222291667  L 11.4702222291667 18.5668148125  C 11.4456296458334 18.8002962916667  11.1946666666666 18.9902222291667  10.9111111041666 18.9902222291667  L 9.07199999999996 18.9902222291667  C 8.78844443749995 18.9902222291667  8.5377777708333 18.8002963125  8.51318518750001 18.5668148125  L 8.3739259166667 17.2462222291667  L 8.33274074999993 16.8548148125  L 7.95585185416667 16.7410370416667  C 7.50898480181453 16.6059480812246  7.07671839428122 16.4265897783271  6.66548147916668 16.205629625  L 6.3185185208334 16.01925925  L 6.01214814583333 16.26725925  L 4.97925924999996 17.1034074166667  C 4.90341184906038 17.1630516023708  4.80904202110226 17.194193645597  4.71259258333339 17.1914074166667  C 4.55970368749998 17.1914074166667  4.39970368749997 17.1226666666667  4.28444443750004 17.0074074166667  L 2.98400000000008 15.7069629583333  C 2.78340741666671 15.506370375  2.74044443750002 15.1949629583333  2.8882962916667 15.0124444375  L 3.72444443749995 13.97925925  L 3.97244443749999 13.6728888958333  L 3.78607408333331 13.3259259166667  C 3.56516384635521 12.9146653170147  3.38580765333018 12.4824040014046  3.25066666666665 12.0355555625  L 3.13688889583333 11.6586666666667  L 2.74518518749998 11.6174814791667  L 1.42459258333338 11.4785185208333  C 1.19111110416664 11.4539259375  1.00148147916661 11.2029629583333  1.00148147916661 10.9194074166667  L 1.00148147916661 9.08029629166666  C 1.00148147916661 8.79674072916667  1.19140739583327 8.5460740625  1.42459258333338 8.52148147916667  L 2.7454814791666 8.38251852083333  L 3.13688889583333 8.34133333333333  L 3.25066666666665 7.9644444375  C 3.38567922288121 7.51755007274335  3.56504062879731 7.08527619369114  3.78607408333331 6.67407408333333  L 3.97274074999996 6.3268148125  L 3.72474075000006 6.0204444375  L 2.88859258333332 4.98785185416667  C 2.74103702083327 4.80533333333333  2.78399999999995 4.493629625  2.98459258333332 4.29333333333333  L 4.28503704166663 2.99288889583334  C 4.39999999999994 2.8779259375  4.55999999999995 2.8091851875  4.71318518749998 2.8091851875  C 4.81807408333331 2.8091851875  4.90755556249997 2.8388148125  4.97955556249993 2.8971851875  L 6.01274075000007 3.73333333333333  L 6.31911110416665 3.98133333333333  L 6.66607408333327 3.79496295833333  C 7.07725697082378 3.57410640782002  7.50941457147261 3.39475207284132  7.95614814583329 3.2595555625  L 8.33303704166671 3.14577777083334  L 8.37422222916666 2.75407408333334  L 8.51318518750001 1.43348147916667  Z M 13.2954074166667 10  C 13.2954074166667 8.17837037500001  11.8130370416667 6.696  9.99140741666664 6.696  C 8.1697777916667 6.696  6.68770370833333 8.17837037500001  6.68770370833333 10  C 6.68770370833333 11.821629625  8.1697777916667 13.304  9.99140741666664 13.304  C 11.8130370416667 13.304  13.2954074166667 11.821629625  13.2954074166667 10  Z M 12.7028148125 10  C 12.7028148333334 11.495111125  11.4865185416667 12.7114074166667  9.99140741666664 12.7114074166667  C 8.49629629166672 12.7114074166667  7.28029627083333 11.495111125  7.28029629166667 10  C 7.28029631250001 8.504888875  8.49629631250006 7.28859258333333  9.99140741666664 7.28859258333333  C 11.4865185208334 7.28859258333333  12.7028147916667 8.504888875  12.7028148125 10  Z " fill-rule="nonzero" fill="#000000" stroke="none" transform="matrix(1 0 0 1 1787 15 )" />
  </g>
</svg>