<?xml version="1.0" encoding="utf-8"?>
<svg version="1.1" xmlns:xlink="http://www.w3.org/1999/xlink" width="14px" height="14px" xmlns="http://www.w3.org/2000/svg">
  <g transform="matrix(1 0 0 1 -195 -18 )">
    <path d="M 195 18  L 209 18  L 209 32  L 195 32  L 195 18  " fill-rule="nonzero" fill="#cccccc" stroke="none" />
    <path d="M 196 19  L 208 19  L 208 31  L 196 31  L 196 19  " fill-rule="nonzero" fill="#ffffff" stroke="none" />
    <path d="M 203.33 22.2  C 202.742 22.2  202.28 21.738  202.28 21.15  C 202.28 20.562  202.742 20.1  203.33 20.1  C 203.918 20.1  204.38 20.562  204.38 21.15  C 204.38 21.738  203.918 22.2  203.33 22.2  " fill-rule="nonzero" fill="#cccccc" stroke="none" />
    <path d="M 197 31  L 197 24.95  L 199.75 22.2  L 203.6 24.4  L 205.8 23.85  L 208 24.4  L 208 31  L 197 31  " fill-rule="nonzero" fill="#169bd5" stroke="none" />
  </g>
</svg>