<?xml version="1.0" encoding="utf-8"?>
<svg version="1.1" xmlns:xlink="http://www.w3.org/1999/xlink" width="16px" height="16px" xmlns="http://www.w3.org/2000/svg">
  <g transform="matrix(1 0 0 1 -105 -163 )">
    <path d="M 14.8783333333333 6.51833333333334  C 15.4333333333333 5.27833333333333  15.7416666666667 3.98166666666666  15.7533333333333 2.61833333333334  C 15.75 2.53999999999999  15.745 2.46333333333334  15.7433333333333 2.38500000000001  C 15.7333333333333 1.78333333333333  15.6433333333333 1.18999999999999  15.4883333333333 0.605000000000003  C 15.4733333333333 0.551666666666673  15.4516666666667 0.525  15.3933333333333 0.510000000000006  C 14.5766666666667 0.291666666666667  13.7466666666667 0.214999999999994  12.9033333333333 0.258333333333333  C 12.4083333333333 0.285000000000006  11.92 0.348333333333327  11.4366666666667 0.45333333333333  C 10.1166666666667 0.739999999999994  8.90333333333333 1.27833333333333  7.77833333333333 2.01833333333334  C 6.695 2.73166666666666  5.745 3.59666666666667  4.89833333333333 4.57666666666667  C 4.86499999999999 4.61499999999999  4.83 4.63333333333333  4.77833333333333 4.63166666666666  C 4.55 4.62666666666667  4.32333333333333 4.63833333333334  4.09666666666667 4.66000000000001  C 3.42333333333333 4.725  2.78833333333334 4.91833333333334  2.18833333333334 5.23  C 1.455 5.61333333333334  0.841666666666667 6.14666666666667  0.266666666666667 6.73166666666666  C 0.223333333333327 6.775  0.251666666666673 6.78999999999999  0.285000000000006 6.81166666666666  C 0.460000000000006 6.92833333333333  0.635000000000006 7.04666666666667  0.810000000000006 7.16333333333334  C 1.68833333333334 7.75166666666667  2.56666666666667 8.34166666666667  3.445 8.93  C 3.48333333333333 8.95666666666666  3.52166666666667 8.97166666666667  3.48833333333334 9.03833333333334  C 3.28999999999999 9.43500000000001  3.25333333333333 9.855  3.35333333333333 10.28  C 3.62333333333333 11.4233333333333  4.33833333333334 12.17  5.44166666666667 12.5416666666667  C 5.925 12.705  6.41833333333334 12.7066666666667  6.895 12.4883333333333  C 6.955 12.4616666666667  6.97833333333333 12.4716666666667  7.01166666666666 12.5216666666667  C 7.32 12.9866666666667  7.63 13.45  7.93999999999999 13.915  C 8.33666666666666 14.51  8.73500000000001 15.1066666666667  9.13166666666666 15.7016666666667  C 9.16000000000001 15.745  9.17666666666667 15.78  9.23166666666666 15.72  C 9.33500000000001 15.6066666666667  9.44666666666667 15.5033333333333  9.55333333333333 15.3933333333333  C 10.0266666666667 14.9066666666667  10.4416666666667 14.3783333333333  10.7616666666667 13.7783333333333  C 11.1916666666667 12.9683333333333  11.3716666666667 12.1  11.3516666666667 11.1883333333333  C 11.35 11.1316666666667  11.3633333333333 11.09  11.4083333333333 11.0516666666667  C 11.9083333333333 10.6183333333333  12.38 10.155  12.8183333333333 9.66000000000001  C 13.6583333333333 8.71333333333334  14.36 7.675  14.8783333333333 6.51833333333334  Z M 14.8666666666667 1.045  C 14.9266666666667 1.05833333333333  14.9466666666667 1.08333333333333  14.9583333333333 1.14000000000001  C 15.06 1.62833333333333  15.1116666666667 2.12  15.11 2.62  C 15.1033333333333 3.94333333333334  14.79 5.2  14.2316666666667 6.4  C 13.7716666666667 7.39166666666667  13.1666666666667 8.28833333333334  12.4516666666667 9.11333333333334  C 11.94 9.705  11.38 10.2483333333333  10.7816666666667 10.75  C 10.7233333333333 10.7983333333333  10.6983333333333 10.8483333333333  10.7016666666667 10.9266666666667  C 10.7216666666667 11.4216666666667  10.7116666666667 11.9133333333333  10.6 12.4  C 10.4433333333333 13.08  10.1316666666667 13.6833333333333  9.71333333333334 14.2366666666667  C 9.595 14.3916666666667  9.47166666666667 14.5416666666667  9.34333333333334 14.6866666666667  C 9.275 14.7616666666667  9.275 14.7616666666667  9.22 14.68  C 8.62 13.7816666666667  8.02166666666667 12.8833333333333  7.42166666666667 11.985  C 7.355 11.885  7.28500000000001 11.7883333333333  7.225 11.6866666666667  C 7.19166666666667 11.63  7.16499999999999 11.6183333333333  7.10333333333333 11.6533333333333  C 6.93 11.7516666666667  6.75666666666666 11.855  6.57333333333333 11.93  C 6.24166666666667 12.0666666666667  5.9 12.0316666666667  5.57333333333333 11.9133333333333  C 4.775 11.6233333333333  4.24166666666667 11.0716666666667  4.005 10.2516666666667  C 3.89833333333333 9.87833333333333  3.92666666666667 9.51666666666667  4.13999999999999 9.18  C 4.20833333333333 9.07166666666667  4.26000000000001 8.955  4.32833333333333 8.84666666666667  C 4.36333333333334 8.79000000000001  4.34666666666667 8.76500000000001  4.29666666666667 8.73166666666668  C 3.35 8.1  2.405 7.46500000000001  1.46000000000001 6.83166666666668  C 1.405 6.795  1.35 6.755  1.295 6.72  C 1.25833333333333 6.69666666666667  1.24833333333333 6.68  1.28500000000001 6.64666666666667  C 1.96666666666667 6.04333333333334  2.72333333333333 5.58  3.62333333333333 5.38333333333333  C 4.08999999999999 5.28166666666668  4.56166666666666 5.25166666666667  5.03833333333334 5.28166666666668  C 5.11333333333334 5.28666666666666  5.16000000000001 5.26000000000001  5.20666666666666 5.205  C 6.07833333333333 4.16833333333334  7.05833333333333 3.25166666666667  8.19833333333333 2.51333333333334  C 9.24666666666667 1.83500000000001  10.3716666666667 1.34000000000001  11.5966666666667 1.08  C 12.0916666666667 0.975  12.5916666666667 0.911666666666664  13.0966666666667 0.894999999999997  C 13.6933333333333 0.875  14.2816666666667 0.923333333333342  14.8666666666667 1.045  Z M 3.02166666666667 14.0133333333333  C 3.34333333333334 13.9066666666667  3.66000000000001 13.7883333333333  3.93500000000001 13.5833333333333  C 4.22833333333333 13.365  4.4 13.0766666666667  4.43166666666666 12.7083333333333  C 4.45166666666667 12.4233333333333  4.31666666666667 12.155  4.07666666666667 12.02  C 3.82833333333333 11.88  3.57166666666667 11.895  3.31499999999999 11.995  C 2.97166666666667 12.13  2.755 12.39  2.6 12.715  C 2.38 13.1783333333333  2.245 13.67  2.12833333333333 14.1666666666667  C 2.11000000000001 14.2433333333333  2.15166666666667 14.235  2.20166666666667 14.225  C 2.47833333333333 14.1683333333333  2.75333333333333 14.1016666666667  3.02166666666667 14.0133333333333  Z M 8.75833333333333 5.52833333333333  C 8.75666666666666 6.23500000000001  9.33166666666666 6.81166666666666  10.0366666666667 6.81333333333334  C 10.7433333333333 6.81333333333334  11.32 6.23999999999999  11.32 5.53333333333333  C 11.3216666666667 4.83  10.7416666666667 4.25  10.0383333333333 4.25166666666667  C 9.33666666666666 4.25333333333333  8.76000000000001 4.83  8.75833333333333 5.52833333333333  Z M 3.03333333333333 13.33  C 3.12666666666667 13.1016666666667  3.195 12.8816666666667  3.36166666666666 12.7133333333333  C 3.45 12.625  3.555 12.565  3.68500000000001 12.5616666666667  C 3.76833333333334 12.56  3.79333333333334 12.585  3.78999999999999 12.6716666666667  C 3.78500000000001 12.8266666666667  3.70166666666667 12.945  3.58999999999999 13.04  C 3.43333333333333 13.175  3.24166666666667 13.2483333333333  3.03333333333333 13.33  Z M 9.405 5.51666666666667  C 9.41000000000001 5.16666666666667  9.695 4.89333333333334  10.0516666666667 4.895  C 10.4016666666667 4.89833333333333  10.6816666666667 5.18333333333333  10.6783333333333 5.53666666666666  C 10.675 5.89333333333334  10.3916666666667 6.175  10.035 6.175  C 9.68333333333333 6.17666666666667  9.4 5.88  9.405 5.51666666666667  Z " fill-rule="nonzero" fill="#333333" stroke="none" transform="matrix(1 0 0 1 105 163 )" />
  </g>
</svg>