<?xml version="1.0" encoding="utf-8"?>
<svg version="1.1" xmlns:xlink="http://www.w3.org/1999/xlink" width="15px" height="15px" xmlns="http://www.w3.org/2000/svg">
  <g transform="matrix(1 0 0 1 -463 -275 )">
    <path d="M 14.8712993973214 14.8710252957589  C 15.0140882979911 14.7278766462054  15.0140882979911 14.4957483147321  14.8712822712054 14.3525996484375  L 8.01717507254464 7.4819094140625  L 14.8351696037946 0.6474003515625  C 14.9779756305804 0.504234559151786  14.9779756305804 0.272123353794643  14.8351696037946 0.128974704241071  C 14.6923293080357 -0.0141910881696429  14.4608348270089 -0.0141910881696429  14.31799453125 0.128974704241071  L 7.49998285714286 6.96348376674107  L 0.681988325892857 0.128974704241071  C 0.539182299107143 -0.0141910881696429  0.307619296875 -0.0141910881696429  0.164813253348214 0.128974704241071  C 0.0220243526785715 0.272140496651786  0.0220243526785715 0.504251702008928  0.164813253348214 0.6474003515625  L 6.98282492745536 7.4819094140625  L 0.128700602678571 14.3525996484375  C -0.0140882979910715 14.4957654408482  -0.0140882979910715 14.7278766462054  0.128700602678571 14.8710252957589  C 0.200103616071429 14.9425824944196  0.293708722098214 14.9783867912946  0.387296702008929 14.9783867912946  C 0.480884681919643 14.9783867912946  0.574489787946429 14.9425824944196  0.645892801339286 14.8710252957589  L 7.5 8.00033504464286  L 14.3541071986607 14.8710252957589  C 14.4255273549107 14.9425824944196  14.5190981919643 14.9783867912946  14.6127032979911 14.9783867912946  C 14.7063084040179 14.9783867912946  14.7998621149554 14.9425824944196  14.8712993973214 14.8710252957589  Z " fill-rule="nonzero" fill="#000000" stroke="none" fill-opacity="0.866666666666667" transform="matrix(1 0 0 1 463 275 )" />
  </g>
</svg>