<?xml version="1.0" encoding="utf-8"?>
<svg version="1.1" xmlns:xlink="http://www.w3.org/1999/xlink" width="16px" height="16px" xmlns="http://www.w3.org/2000/svg">
  <g transform="matrix(1 0 0 1 -122 -72 )">
    <path d="M 8.36368253964286 7.57892063482143  L 15.6739047619643 7.57892063482143  L 15.6739047619643 7.94260317464286  C 15.6739047619643 12.17473015875  12.2321269841071 15.6165079366071  8 15.6165079366071  C 3.76787301589286 15.6165079366071  0.326095238035716 12.1747301589286  0.326095238035716 7.94260317464286  C 0.326095238035716 3.71047619053572  3.76787301571429 0.268698412678572  8 0.268698412678572  L 8.36368253964286 0.268698412678572  L 8.36368253964286 7.57892063482143  Z M 8 14.8911746032143  C 11.7099682539286 14.8911746032143  14.7494603175 11.9695238094643  14.9384126983929 8  L 7.63631746035714 8  L 7.63631746035714 1.00419047625  C 3.97307936517857 1.19314285714286  1.05142857142857 4.23263492053572  1.05142857142857 7.94260317464286  C 1.05142857142857 11.7744761905357  4.16812698410714 14.8911746032143  8 14.8911746032143  Z M 9.77371428571429 1.09358730160714  C 12.6872380951786 1.09358730160714  15.0562539682143 3.46463492071428  15.0562539682143 6.37612698410715  L 15.0562539682143 6.74184126982143  L 9.41003174607143 6.74184126982143  L 9.41003174607143 1.09358730160714  L 9.77371428571429 1.09358730160714  Z M 10.1373968253571 6.01447619053572  L 14.3166984126786 6.01447619053572  C 14.1399365078571 3.78971428571429  12.3601269841071 2.00990476196429  10.1373968253571 1.83517460321428  L 10.1373968253571 6.01447619053572  Z " fill-rule="nonzero" fill="#000000" stroke="none" fill-opacity="0.866666666666667" transform="matrix(1 0 0 1 122 72 )" />
  </g>
</svg>