<?xml version="1.0" encoding="utf-8"?>
<svg version="1.1" xmlns:xlink="http://www.w3.org/1999/xlink" width="22px" height="12px" xmlns="http://www.w3.org/2000/svg">
  <g transform="matrix(1 0 0 1 -180 -19 )">
    <path d="M 180 19  L 202 19  L 202 31  L 180 31  L 180 19  " fill-rule="nonzero" fill="#cccccc" stroke="none" />
    <path d="M 181 20  L 201 20  L 201 30  L 181 30  L 181 20  " fill-rule="nonzero" fill="#ffffff" stroke="none" />
    <path d="M 192.34 22.6  C 191.836 22.6  191.44 22.204  191.44 21.7  C 191.44 21.196  191.836 20.8  192.34 20.8  C 192.844 20.8  193.24 21.196  193.24 21.7  C 193.24 22.204  192.844 22.6  192.34 22.6  " fill-rule="nonzero" fill="#cccccc" stroke="none" />
    <path d="M 182 30  L 182 25.05  L 186.75 22.8  L 193.4 27.0545454545455  L 197.2 24.15  L 201 27.0545454545455  L 201 30  L 182 30  " fill-rule="nonzero" fill="#169bd5" stroke="none" />
  </g>
</svg>