<?xml version="1.0" encoding="utf-8"?>
<svg version="1.1" xmlns:xlink="http://www.w3.org/1999/xlink" width="22px" height="12px" xmlns="http://www.w3.org/2000/svg">
  <g transform="matrix(1 0 0 1 -217 -19 )">
    <path d="M 217 19  L 239 19  L 239 31  L 217 31  L 217 19  " fill-rule="nonzero" fill="#cccccc" stroke="none" />
    <path d="M 218 20  L 238 20  L 238 30  L 218 30  L 218 20  " fill-rule="nonzero" fill="#ffffff" stroke="none" />
    <path d="M 229.34 22.6  C 228.836 22.6  228.44 22.204  228.44 21.7  C 228.44 21.196  228.836 20.8  229.34 20.8  C 229.844 20.8  230.24 21.196  230.24 21.7  C 230.24 22.204  229.844 22.6  229.34 22.6  " fill-rule="nonzero" fill="#cccccc" stroke="none" />
    <path d="M 219 30  L 219 25.05  L 223.75 22.8  L 230.4 27.0545454545455  L 234.2 24.15  L 238 27.0545454545455  L 238 30  L 219 30  " fill-rule="nonzero" fill="#169bd5" stroke="none" />
  </g>
</svg>