<?xml version="1.0" encoding="utf-8"?>
<svg version="1.1" xmlns:xlink="http://www.w3.org/1999/xlink" width="1229px" height="529px" xmlns="http://www.w3.org/2000/svg">
  <g transform="matrix(1 0 0 1 -105 -128 )">
    <path d="M 106 130  A 1 1 0 0 1 107 129 L 1332 129  A 1 1 0 0 1 1333 130 L 1333 655  A 1 1 0 0 1 1332 656 L 107 656  A 1 1 0 0 1 106 655 L 106 130  Z " fill-rule="nonzero" fill="#ffffff" stroke="none" />
    <path d="M 105.5 130  A 1.5 1.5 0 0 1 107 128.5 L 1332 128.5  A 1.5 1.5 0 0 1 1333.5 130 L 1333.5 655  A 1.5 1.5 0 0 1 1332 656.5 L 107 656.5  A 1.5 1.5 0 0 1 105.5 655 L 105.5 130  Z " stroke-width="1" stroke="#dadce0" fill="none" stroke-opacity="0.996078431372549" />
  </g>
</svg>