<?xml version="1.0" encoding="utf-8"?>
<svg version="1.1" xmlns:xlink="http://www.w3.org/1999/xlink" width="1154px" height="529px" xmlns="http://www.w3.org/2000/svg">
  <g transform="matrix(1 0 0 1 -142 -56 )">
    <path d="M 143 58  A 1 1 0 0 1 144 57 L 1294 57  A 1 1 0 0 1 1295 58 L 1295 583  A 1 1 0 0 1 1294 584 L 144 584  A 1 1 0 0 1 143 583 L 143 58  Z " fill-rule="nonzero" fill="#ffffff" stroke="none" />
    <path d="M 142.5 58  A 1.5 1.5 0 0 1 144 56.5 L 1294 56.5  A 1.5 1.5 0 0 1 1295.5 58 L 1295.5 583  A 1.5 1.5 0 0 1 1294 584.5 L 144 584.5  A 1.5 1.5 0 0 1 142.5 583 L 142.5 58  Z " stroke-width="1" stroke="#dadce0" fill="none" stroke-opacity="0.996078431372549" />
  </g>
</svg>