<?xml version="1.0" encoding="utf-8"?>
<svg version="1.1" xmlns:xlink="http://www.w3.org/1999/xlink" width="388px" height="529px" xmlns="http://www.w3.org/2000/svg">
  <g transform="matrix(1 0 0 1 -1388 -24 )">
    <path d="M 1389 26  A 1 1 0 0 1 1390 25 L 1774 25  A 1 1 0 0 1 1775 26 L 1775 551  A 1 1 0 0 1 1774 552 L 1390 552  A 1 1 0 0 1 1389 551 L 1389 26  Z " fill-rule="nonzero" fill="#ffffff" stroke="none" />
    <path d="M 1388.5 26  A 1.5 1.5 0 0 1 1390 24.5 L 1774 24.5  A 1.5 1.5 0 0 1 1775.5 26 L 1775.5 551  A 1.5 1.5 0 0 1 1774 552.5 L 1390 552.5  A 1.5 1.5 0 0 1 1388.5 551 L 1388.5 26  Z " stroke-width="1" stroke="#dadce0" fill="none" stroke-opacity="0.996078431372549" />
  </g>
</svg>