<?xml version="1.0" encoding="utf-8"?>
<svg version="1.1" xmlns:xlink="http://www.w3.org/1999/xlink" width="388px" height="529px" xmlns="http://www.w3.org/2000/svg">
  <g transform="matrix(1 0 0 1 -1358 -56 )">
    <path d="M 1359 58  A 1 1 0 0 1 1360 57 L 1744 57  A 1 1 0 0 1 1745 58 L 1745 583  A 1 1 0 0 1 1744 584 L 1360 584  A 1 1 0 0 1 1359 583 L 1359 58  Z " fill-rule="nonzero" fill="#ffffff" stroke="none" />
    <path d="M 1358.5 58  A 1.5 1.5 0 0 1 1360 56.5 L 1744 56.5  A 1.5 1.5 0 0 1 1745.5 58 L 1745.5 583  A 1.5 1.5 0 0 1 1744 584.5 L 1360 584.5  A 1.5 1.5 0 0 1 1358.5 583 L 1358.5 58  Z " stroke-width="1" stroke="#dadce0" fill="none" stroke-opacity="0.996078431372549" />
  </g>
</svg>