<?xml version="1.0" encoding="utf-8"?>
<svg version="1.1" xmlns:xlink="http://www.w3.org/1999/xlink" width="16px" height="16px" xmlns="http://www.w3.org/2000/svg">
  <g transform="matrix(1 0 0 1 -408 -231 )">
    <path d="M 14.7786543571428 7.93284553571428  C 14.9993230357143 7.93284553571428  15.1778899642858 8.11161348214286  15.1778899642858 8.33208114285714  L 15.1778899642858 13.7580891607143  C 15.1778899642858 14.8587280714286  14.2823325714285 15.7542854464286  13.1816936607143 15.7542854464286  L 2.00295057142856 15.7542854464286  C 0.902311660714336 15.7542854464286  0.00675428571425333 14.8587280714286  0 13.7580891607143  L 0 2.57934605357143  C 0.00675428571425333 1.47870714285714  0.902311660714336 0.583149767857127  2.00295057142856 0.583149767857127  L 7.42895858928568 0.583149767857127  C 7.64962726785715 0.583149767857127  7.82819419642861 0.761917714285703  7.82819419642861 0.982385374999987  C 7.82819419642861 1.20285303571427  7.64962726785715 1.38162098214285  7.42895858928568 1.38162098214285  L 2.00295057142856 1.38162098214285  C 1.3424795178571 1.38162098214285  0.805225482142825 1.91887501785712  1 2.57934607142858  L 1 13.7580891607143  C 0.805225482142825 14.4185602142857  1.3424795178571 14.95581425  2.00295057142856 14.8571428571429  L 13.1816936607143 14.8571428571429  C 13.8421464464285 14.95581425  14.37941875 14.4185602142857  14.37941875 13.7580891607143  L 14.37941875 8.33208114285714  C 14.37941875 8.11159519642855  14.5579856785714 7.93284553571428  14.7786543571428 7.93284553571428  Z M 12.6403646964285 1.40062523214283  L 14.7117374464286 3.46428664285713  C 14.7117374464286 3.46428664285713  15.5851292857143 2.58316517857143  15.8538385357143 2.28174669642859  C 16.1225295 1.98030992857145  15.85382025 1.40062523214283  15.85382025 1.40062523214283  C 15.85382025 1.40062523214283  15.3300519285714 0.820940535714271  14.7271783928571 0.380407232142846  C 14.124323125 -0.0601443571428847  13.6605826964286 0.380407232142846  13.6605826964286 0.380407232142846  L 12.6403646964285 1.40062523214283  Z M 8.07106496428566 9.87038444642855  L 6.15417489285716 7.98439458928572  L 4.94837300000004 11.1998419285715  L 8.07106496428566 9.87038444642855  Z M 8.56574214285709 9.59211824999998  L 14.2236751964286 3.84144807142859  L 12.2449482142857 1.800865875  L 6.50971898214292 7.4587989285714  L 8.56574214285709 9.59211824999998  Z " fill-rule="nonzero" fill="#000000" stroke="none" transform="matrix(1 0 0 1 408 231 )" />
  </g>
</svg>