<?xml version="1.0" encoding="utf-8"?>
<svg version="1.1" xmlns:xlink="http://www.w3.org/1999/xlink" width="58px" height="25px" viewBox="180 279  58 25" xmlns="http://www.w3.org/2000/svg">
  <path d="M 181 281  A 1 1 0 0 1 182 280 L 236 280  A 1 1 0 0 1 237 281 L 237 302  A 1 1 0 0 1 236 303 L 182 303  A 1 1 0 0 1 181 302 L 181 281  Z " fill-rule="nonzero" fill="#ffffff" stroke="none" />
  <path d="M 180.5 281  A 1.5 1.5 0 0 1 182 279.5 L 236 279.5  A 1.5 1.5 0 0 1 237.5 281 L 237.5 302  A 1.5 1.5 0 0 1 236 303.5 L 182 303.5  A 1.5 1.5 0 0 1 180.5 302 L 180.5 281  Z " stroke-width="1" stroke="#dadce0" fill="none" stroke-opacity="0.996078431372549" />
</svg>