<?xml version="1.0" encoding="utf-8"?>
<svg version="1.1" xmlns:xlink="http://www.w3.org/1999/xlink" width="148px" height="32px" xmlns="http://www.w3.org/2000/svg">
  <g transform="matrix(1 0 0 1 -23 -54 )">
    <path d="M 23.5 56  A 1.5 1.5 0 0 1 25 54.5 L 169 54.5  A 1.5 1.5 0 0 1 170.5 56 L 170.5 84  A 1.5 1.5 0 0 1 169 85.5 L 25 85.5  A 1.5 1.5 0 0 1 23.5 84 L 23.5 56  Z " fill-rule="nonzero" fill="#ffffff" stroke="none" />
    <path d="M 23.5 56  A 1.5 1.5 0 0 1 25 54.5 L 169 54.5  A 1.5 1.5 0 0 1 170.5 56 L 170.5 84  A 1.5 1.5 0 0 1 169 85.5 L 25 85.5  A 1.5 1.5 0 0 1 23.5 84 L 23.5 56  Z " stroke-width="1" stroke="#d1d5da" fill="none" />
  </g>
</svg>