<?xml version="1.0" encoding="utf-8"?>
<svg version="1.1" xmlns:xlink="http://www.w3.org/1999/xlink" width="104px" height="25px" viewBox="194 199  104 25" xmlns="http://www.w3.org/2000/svg">
  <path d="M 195 201  A 1 1 0 0 1 196 200 L 296 200  A 1 1 0 0 1 297 201 L 297 222  A 1 1 0 0 1 296 223 L 196 223  A 1 1 0 0 1 195 222 L 195 201  Z " fill-rule="nonzero" fill="#ffffff" stroke="none" />
  <path d="M 194.5 201  A 1.5 1.5 0 0 1 196 199.5 L 296 199.5  A 1.5 1.5 0 0 1 297.5 201 L 297.5 222  A 1.5 1.5 0 0 1 296 223.5 L 196 223.5  A 1.5 1.5 0 0 1 194.5 222 L 194.5 201  Z " stroke-width="1" stroke="#dadce0" fill="none" stroke-opacity="0.996078431372549" />
</svg>