<?xml version="1.0" encoding="utf-8"?>
<svg version="1.1" xmlns:xlink="http://www.w3.org/1999/xlink" width="148px" height="32px" xmlns="http://www.w3.org/2000/svg">
  <g transform="matrix(1 0 0 1 -51 -316 )">
    <path d="M 51.5 318  A 1.5 1.5 0 0 1 53 316.5 L 197 316.5  A 1.5 1.5 0 0 1 198.5 318 L 198.5 346  A 1.5 1.5 0 0 1 197 347.5 L 53 347.5  A 1.5 1.5 0 0 1 51.5 346 L 51.5 318  Z " fill-rule="nonzero" fill="#ffffff" stroke="none" />
    <path d="M 51.5 318  A 1.5 1.5 0 0 1 53 316.5 L 197 316.5  A 1.5 1.5 0 0 1 198.5 318 L 198.5 346  A 1.5 1.5 0 0 1 197 347.5 L 53 347.5  A 1.5 1.5 0 0 1 51.5 346 L 51.5 318  Z " stroke-width="1" stroke="#0078d7" fill="none" />
  </g>
</svg>