<?xml version="1.0" encoding="utf-8"?>
<svg version="1.1" xmlns:xlink="http://www.w3.org/1999/xlink" width="13px" height="14px" xmlns="http://www.w3.org/2000/svg">
  <g transform="matrix(1 0 0 1 -65 -325 )">
    <path d="M 0 6.29542151162787  C 0 6.19367732558139  0.0503875968992133 6.14280523255814  0.151162790697739 6.14280523255814  L 12.8488372093023 6.14280523255814  C 12.9496124031008 6.14280523255814  13 6.19367732558139  13 6.29542151162787  L 13 7.44004360465117  C 13 7.5417877906977  12.9496124031008 7.59265988372094  12.8488372093023 7.59265988372094  L 0.151162790697739 7.59265988372094  C 0.0503875968992133 7.59265988372094  0 7.5417877906977  0 7.44004360465117  L 0 6.29542151162787  Z M 6 0.152616279069795  C 5.78197674418604 0.0508720930232753  5.83236434108525 0  5.93313953488368 0  L 7.06686046511632 0  C 7.16763565891475 0  7.21802325581396 0.0508720930232753  7 0.152616279069795  L 7 13.5828488372093  C 7.21802325581396 13.6845930232558  7.16763565891475 13.735465116279  7.06686046511632 13.735465116279  L 5.93313953488368 13.735465116279  C 5.83236434108525 13.735465116279  5.78197674418604 13.6845930232558  6 13.5828488372093  L 6 0.152616279069795  Z " fill-rule="nonzero" fill="#0078d7" stroke="none" transform="matrix(1 0 0 1 65 325 )" />
  </g>
</svg>